<svg xmlns="http://www.w3.org/2000/svg" style="display: none;">


    <g id="Telephone" xmlns="http://www.w3.org/2000/svg">
        <linearGradient id="SVGID_1_" x1="38.743" x2="9.257" y1="9.257" y2="38.743" gradientUnits="userSpaceOnUse">
            <stop offset="0" stop-color="#60fea4"/>
            <stop offset=".033" stop-color="#6afeaa"/>
            <stop offset=".197" stop-color="#97fec4"/>
            <stop offset=".362" stop-color="#bdffd9"/>
            <stop offset=".525" stop-color="#daffea"/>
            <stop offset=".687" stop-color="#eefff5"/>
            <stop offset=".846" stop-color="#fbfffd"/>
            <stop offset="1" stop-color="#fff"/>
        </linearGradient>
        <path fill="url(#SVGID_1_)"
              d="M34.5,40.5h-21c-3.314,0-6-2.686-6-6v-21c0-3.314,2.686-6,6-6h21c3.314,0,6,2.686,6,6v21	C40.5,37.814,37.814,40.5,34.5,40.5z"/>
        <path fill="#10e36c"
              d="M31.328,34.068c0.648,0,2.876-1.164,2.752-4.041c-0.022-0.507-0.307-0.972-0.745-1.252	c-0.499-0.32-1.273-0.816-2.282-1.461c-0.921-0.588-2.11-0.63-3.071-0.104l-0.874,0.374c-0.455,0.32-1.039,0.383-1.552,0.169	c-0.799-0.334-2.026-0.981-3.177-2.132c-1.151-1.151-1.798-2.378-2.132-3.177c-0.215-0.513-0.151-1.097,0.169-1.552l0.374-0.874	c0.526-0.96,0.485-2.15-0.104-3.071c-0.646-1.01-1.142-1.783-1.461-2.282c-0.281-0.438-0.746-0.723-1.252-0.745	c-2.876-0.124-4.041,2.104-4.041,2.752c0,0.449-0.614,5.842,5.47,11.926S30.88,34.068,31.328,34.068z"/>
        <path fill="none" stroke="#10e36c" stroke-linecap="round" stroke-linejoin="round" stroke-width="3"
              d="M32.149,7.5H34.5c3.314,0,6,2.686,6,6v21c0,3.314-2.686,6-6,6h-8.734"/>
        <path fill="none" stroke="#10e36c" stroke-linecap="round" stroke-linejoin="round" stroke-width="3"
              d="M19.851,40.5H13.5c-3.314,0-6-2.686-6-6v-21c0-3.314,2.686-6,6-6h12.819"/>
    </g>

    <g id="Whatsapp" xmlns="http://www.w3.org/2000/svg" fill-rule="evenodd"
       clip-rule="evenodd">
        <path fill="#fff"
              d="M4.868,43.303l2.694-9.835C5.9,30.59,5.026,27.324,5.027,23.979C5.032,13.514,13.548,5,24.014,5c5.079,0.002,9.845,1.979,13.43,5.566c3.584,3.588,5.558,8.356,5.556,13.428c-0.004,10.465-8.522,18.98-18.986,18.98c-0.001,0,0,0,0,0h-0.008c-3.177-0.001-6.3-0.798-9.073-2.311L4.868,43.303z"/>
        <path fill="#fff"
              d="M4.868,43.803c-0.132,0-0.26-0.052-0.355-0.148c-0.125-0.127-0.174-0.312-0.127-0.483l2.639-9.636c-1.636-2.906-2.499-6.206-2.497-9.556C4.532,13.238,13.273,4.5,24.014,4.5c5.21,0.002,10.105,2.031,13.784,5.713c3.679,3.683,5.704,8.577,5.702,13.781c-0.004,10.741-8.746,19.48-19.486,19.48c-3.189-0.001-6.344-0.788-9.144-2.277l-9.875,2.589C4.953,43.798,4.911,43.803,4.868,43.803z"/>
        <path fill="#cfd8dc"
              d="M24.014,5c5.079,0.002,9.845,1.979,13.43,5.566c3.584,3.588,5.558,8.356,5.556,13.428c-0.004,10.465-8.522,18.98-18.986,18.98h-0.008c-3.177-0.001-6.3-0.798-9.073-2.311L4.868,43.303l2.694-9.835C5.9,30.59,5.026,27.324,5.027,23.979C5.032,13.514,13.548,5,24.014,5 M24.014,42.974C24.014,42.974,24.014,42.974,24.014,42.974C24.014,42.974,24.014,42.974,24.014,42.974 M24.014,42.974C24.014,42.974,24.014,42.974,24.014,42.974C24.014,42.974,24.014,42.974,24.014,42.974 M24.014,4C24.014,4,24.014,4,24.014,4C12.998,4,4.032,12.962,4.027,23.979c-0.001,3.367,0.849,6.685,2.461,9.622l-2.585,9.439c-0.094,0.345,0.002,0.713,0.254,0.967c0.19,0.192,0.447,0.297,0.711,0.297c0.085,0,0.17-0.011,0.254-0.033l9.687-2.54c2.828,1.468,5.998,2.243,9.197,2.244c11.024,0,19.99-8.963,19.995-19.98c0.002-5.339-2.075-10.359-5.848-14.135C34.378,6.083,29.357,4.002,24.014,4L24.014,4z"/>
        <path fill="#40c351"
              d="M35.176,12.832c-2.98-2.982-6.941-4.625-11.157-4.626c-8.704,0-15.783,7.076-15.787,15.774c-0.001,2.981,0.833,5.883,2.413,8.396l0.376,0.597l-1.595,5.821l5.973-1.566l0.577,0.342c2.422,1.438,5.2,2.198,8.032,2.199h0.006c8.698,0,15.777-7.077,15.78-15.776C39.795,19.778,38.156,15.814,35.176,12.832z"/>
        <path fill="#fff" fill-rule="evenodd"
              d="M19.268,16.045c-0.355-0.79-0.729-0.806-1.068-0.82c-0.277-0.012-0.593-0.011-0.909-0.011c-0.316,0-0.83,0.119-1.265,0.594c-0.435,0.475-1.661,1.622-1.661,3.956c0,2.334,1.7,4.59,1.937,4.906c0.237,0.316,3.282,5.259,8.104,7.161c4.007,1.58,4.823,1.266,5.693,1.187c0.87-0.079,2.807-1.147,3.202-2.255c0.395-1.108,0.395-2.057,0.277-2.255c-0.119-0.198-0.435-0.316-0.909-0.554s-2.807-1.385-3.242-1.543c-0.435-0.158-0.751-0.237-1.068,0.238c-0.316,0.474-1.225,1.543-1.502,1.859c-0.277,0.317-0.554,0.357-1.028,0.119c-0.474-0.238-2.002-0.738-3.815-2.354c-1.41-1.257-2.362-2.81-2.639-3.285c-0.277-0.474-0.03-0.731,0.208-0.968c0.213-0.213,0.474-0.554,0.712-0.831c0.237-0.277,0.316-0.475,0.474-0.791c0.158-0.317,0.079-0.594-0.04-0.831C20.612,19.329,19.69,16.983,19.268,16.045z"
              clip-rule="evenodd"/>
    </g>

    <g id="Telegram" xmlns="http://www.w3.org/2000/svg">
        <path fill="#29b6f6" d="M24 4A20 20 0 1 0 24 44A20 20 0 1 0 24 4Z"/>
        <path fill="#fff"
              d="M33.95,15l-3.746,19.126c0,0-0.161,0.874-1.245,0.874c-0.576,0-0.873-0.274-0.873-0.274l-8.114-6.733 l-3.97-2.001l-5.095-1.355c0,0-0.907-0.262-0.907-1.012c0-0.625,0.933-0.923,0.933-0.923l21.316-8.468 c-0.001-0.001,0.651-0.235,1.126-0.234C33.667,14,34,14.125,34,14.5C34,14.75,33.95,15,33.95,15z"/>
        <path fill="#b0bec5"
              d="M23,30.505l-3.426,3.374c0,0-0.149,0.115-0.348,0.12c-0.069,0.002-0.143-0.009-0.219-0.043 l0.964-5.965L23,30.505z"/>
        <path fill="#cfd8dc"
              d="M29.897,18.196c-0.169-0.22-0.481-0.26-0.701-0.093L16,26c0,0,2.106,5.892,2.427,6.912 c0.322,1.021,0.58,1.045,0.58,1.045l0.964-5.965l9.832-9.096C30.023,18.729,30.064,18.416,29.897,18.196z"/>
    </g>


    <g id="MailG" xmlns="http://www.w3.org/2000/svg">
        <path fill="#5c7aaf"
              d="M12.47,40.69c-1.07-0.08-2.5-0.09-3.57-0.04c-1.16,0.06-2.34,0.19-3.49-0.03	c-1.15-0.21-2.29-0.83-2.79-1.9c-0.3-0.63-0.34-1.35-0.37-2.06c-0.04-0.73-0.08-1.47-0.05-2.21c0.04-1,0.19-2,0.26-3	c0.05-0.8,0.05-1.6,0.04-2.41c0.18-4.49-0.4-8.96-0.49-13.43c2.26,2.16,5.29,4.07,7.88,5.79c0.72,0.48,1.4,1,2.07,1.54	c0.09,1.13,0.2,2.23,0.29,3.39c0.11,1.37,0.11,2.75,0.12,4.13C12.38,33.71,12.47,40.69,12.47,40.69z"/>
        <path fill="#b43b2c"
              d="M11.96,22.94c-0.67-0.54-1.35-1.06-2.07-1.54c-2.59-1.72-5.62-3.63-7.88-5.79c-0.02-1-0.01-2,0.03-3	c-0.22-4.38,5.08-6.03,8.03-3.23c0.57,0.47,1.1,0.91,1.59,1.32c0.05,1.28-0.03,2.96,0.06,4.15c0.17,2.18,0.03,4.46,0.14,6.65	C11.89,21.99,11.92,22.47,11.96,22.94z"/>
        <path fill="#cc2729"
              d="M35.5,21.63c-0.04,0.77-0.07,1.53-0.09,2.28C31.47,26.45,27.99,29.5,24,32	c-3.16-2.36-6.45-4.45-9.39-6.86c-0.89-0.73-1.76-1.48-2.65-2.2c-0.04-0.47-0.07-0.95-0.1-1.44c-0.11-2.19,0.03-4.47-0.14-6.65	c-0.09-1.19-0.01-2.87-0.06-4.15c2.39,2,4.09,3.44,6.32,5.27c1.88,1.34,4.04,2.41,6.02,3.5c4.32-2.27,8.34-5.12,12.17-8.11	C36.52,14.55,35.68,18.49,35.5,21.63z"/>
        <path fill="#febf10"
              d="M46.05,15.31c-3.28,3.43-6.58,6.03-9.99,8.17c-0.22,0.14-0.43,0.28-0.65,0.43	c0.02-0.75,0.05-1.51,0.09-2.28c0.18-3.14,1.02-7.08,0.67-10.27c0.39-0.3,0.77-0.6,1.15-0.9c1.05-0.83,2.11-1.69,3.38-2.15	c1.26-0.46,2.8-0.46,3.86,0.35c0.71,0.54,1.12,1.37,1.3,2.22C45.99,12.29,46.04,13.77,46.05,15.31z"/>
        <path fill="#6eb37d"
              d="M45.87,39.21c-0.18,0.57-0.63,1.04-1.16,1.32s-1.12,0.4-1.72,0.45c-1.49,0.11-2.97-0.23-4.46-0.28	c-0.89-0.03-2.13,0.03-3.03,0.1c0,0-0.01-2.91,0-4.03c0.03-4.41-0.21-8.54-0.09-12.86c0.22-0.15,0.43-0.29,0.65-0.43	c3.41-2.14,6.71-4.74,9.99-8.17c0.02,4.01-0.26,8.35-0.27,12.45C45.78,31.35,46.52,35.66,45.87,39.21z"/>
        <path d="M35.62,11.658c0.313,2.13,0.032,4.295-0.24,6.414c-0.277,2.157-0.448,4.298-0.487,6.473	c-0.077,4.223,0.12,8.447,0.106,12.67c-0.004,1.196-0.001,2.392,0.002,3.588c0.001,0.255,0.229,0.52,0.5,0.5	c1.047-0.078,2.103-0.146,3.152-0.098c1.215,0.056,2.417,0.288,3.634,0.295c1.046,0.006,2.167-0.133,3.033-0.767	c0.819-0.6,1.054-1.372,1.173-2.339c0.277-2.25,0.107-4.532-0.04-6.785c-0.15-2.294-0.183-4.569-0.127-6.867	c0.059-2.379,0.161-4.756,0.203-7.136c0.02-1.168,0.026-2.337,0-3.506c-0.024-1.083-0.013-2.213-0.179-3.285	c-0.299-1.932-1.915-3.269-3.837-3.312c-2.098-0.047-3.812,1.232-5.379,2.469c-4.235,3.344-8.606,6.536-13.384,9.069	c0.168,0,0.336,0,0.505,0c-2.183-1.198-4.519-2.275-6.452-3.867c-1.588-1.308-3.165-2.629-4.744-3.948	c-0.916-0.765-1.84-1.521-2.745-2.297C9.712,8.413,9.05,8.008,8.292,7.764C6.918,7.32,5.374,7.443,4.089,8.1	c-1.315,0.672-2.251,1.939-2.484,3.399c-0.172,1.078-0.11,2.23-0.105,3.319c0.007,1.349,0.066,2.696,0.142,4.043	c0.154,2.736,0.38,5.471,0.393,8.213c0.006,1.336,0.004,2.684-0.059,4.018c-0.061,1.286-0.282,2.559-0.286,3.848	c-0.004,1.264-0.066,2.76,0.456,3.939c0.448,1.011,1.39,1.685,2.413,2.038c1.32,0.456,2.745,0.317,4.112,0.244	c1.263-0.068,2.532-0.06,3.794,0.024c0.268,0.018,0.503-0.243,0.5-0.5c-0.03-2.524-0.057-5.048-0.078-7.572	c-0.016-1.937,0.016-3.879-0.078-5.814c-0.126-2.609-0.48-5.194-0.495-7.811c-0.008-1.429,0.019-2.86-0.072-4.286	c-0.091-1.424-0.008-2.85-0.108-4.272c-0.045-0.638-1.045-0.643-1,0c0.086,1.225-0.006,2.452,0.066,3.677	c0.077,1.31,0.111,2.613,0.112,3.925c0.001,2.615,0.237,5.19,0.436,7.795c0.285,3.737,0.142,7.537,0.183,11.284	c0.011,1.025,0.022,2.05,0.034,3.074c0.167-0.167,0.333-0.333,0.5-0.5c-0.998-0.066-2.001-0.082-3.001-0.056	c-1.081,0.028-2.163,0.164-3.245,0.093c-1.014-0.067-2.1-0.38-2.791-1.171c-0.737-0.842-0.676-2.075-0.717-3.126	c-0.047-1.196,0.046-2.362,0.164-3.55c0.119-1.195,0.106-2.382,0.136-3.58c0.061-2.417-0.054-4.827-0.204-7.24	c-0.15-2.407-0.318-4.815-0.307-7.227c0.007-1.591-0.158-3.336,1.028-4.578C4.413,8.822,5.72,8.417,6.981,8.515	c1.7,0.132,2.836,1.305,4.079,2.341c2.984,2.487,5.861,5.233,9.246,7.166c0.977,0.558,1.973,1.082,2.961,1.619	c0.42,0.228,0.637,0.411,1.089,0.21c0.52-0.231,1.018-0.55,1.513-0.832c2.002-1.139,3.938-2.393,5.824-3.716	c1.823-1.279,3.6-2.624,5.353-3.998c1.608-1.261,3.369-2.911,5.564-2.801c1.073,0.054,1.972,0.599,2.452,1.57	c0.454,0.919,0.398,2.037,0.437,3.039c0.087,2.232,0.042,4.467-0.023,6.699c-0.067,2.304-0.161,4.607-0.186,6.912	c-0.024,2.154,0.139,4.291,0.261,6.44c0.062,1.104,0.106,2.211,0.078,3.317c-0.024,0.941,0.087,2.398-0.562,3.146	c-0.75,0.865-2.075,0.906-3.131,0.864c-1.168-0.046-2.323-0.26-3.492-0.294c-0.981-0.029-1.965,0.033-2.943,0.106	c0.167,0.167,0.333,0.333,0.5,0.5c-0.008-2.999,0.012-5.997-0.047-8.996c-0.087-4.433-0.199-8.864,0.366-13.272	c0.305-2.377,0.616-4.753,0.264-7.143C36.491,10.758,35.527,11.027,35.62,11.658L35.62,11.658z"/>
        <path d="M1.834,16.064c3.218,3.139,7.297,5.148,10.731,8.019c1.74,1.455,3.501,2.862,5.345,4.184	c1.942,1.392,3.918,2.736,5.834,4.165c0.136,0.101,0.367,0.087,0.505,0c4.105-2.589,7.772-5.799,11.868-8.4	c3.751-2.382,7.201-5.027,10.253-8.274c0.441-0.469-0.265-1.177-0.707-0.707c-1.56,1.659-3.219,3.221-5.007,4.632	c-1.67,1.318-3.451,2.464-5.24,3.611c-4.019,2.576-7.632,5.728-11.672,8.275c0.168,0,0.336,0,0.505,0	c-1.853-1.382-3.761-2.684-5.642-4.028c-1.905-1.361-3.715-2.817-5.513-4.314c-3.38-2.813-7.392-4.786-10.553-7.87	C2.08,14.907,1.372,15.614,1.834,16.064L1.834,16.064z"/>
    </g>


    <g id="Git" xmlns="http://www.w3.org/2000/svg">
        <path fill="#F4511E"
              d="M42.2,22.1L25.9,5.8C25.4,5.3,24.7,5,24,5c0,0,0,0,0,0c-0.7,0-1.4,0.3-1.9,0.8l-3.5,3.5l4.1,4.1c0.4-0.2,0.8-0.3,1.3-0.3c1.7,0,3,1.3,3,3c0,0.5-0.1,0.9-0.3,1.3l4,4c0.4-0.2,0.8-0.3,1.3-0.3c1.7,0,3,1.3,3,3s-1.3,3-3,3c-1.7,0-3-1.3-3-3c0-0.5,0.1-0.9,0.3-1.3l-4-4c-0.1,0-0.2,0.1-0.3,0.1v10.4c1.2,0.4,2,1.5,2,2.8c0,1.7-1.3,3-3,3s-3-1.3-3-3c0-1.3,0.8-2.4,2-2.8V18.8c-1.2-0.4-2-1.5-2-2.8c0-0.5,0.1-0.9,0.3-1.3l-4.1-4.1L5.8,22.1C5.3,22.6,5,23.3,5,24c0,0.7,0.3,1.4,0.8,1.9l16.3,16.3c0,0,0,0,0,0c0.5,0.5,1.2,0.8,1.9,0.8s1.4-0.3,1.9-0.8l16.3-16.3c0.5-0.5,0.8-1.2,0.8-1.9C43,23.3,42.7,22.6,42.2,22.1z"></path>
    </g>








    <g id="Bootstrap" xmlns="http://www.w3.org/2000/svg">
        <linearGradient id="Q_pn21O5LDDqwJlze0Upoa" x1="24" x2="24" y1="41" y2="7" gradientUnits="userSpaceOnUse">
            <stop offset="0" stop-color="#643499"/>
            <stop offset=".011" stop-color="#68369f"/>
            <stop offset=".135" stop-color="#773db6"/>
            <stop offset=".193" stop-color="#8042c3"/>
            <stop offset=".248" stop-color="#8343c8"/>
            <stop offset=".388" stop-color="#8444c9"/>
            <stop offset=".732" stop-color="#9751d2"/>
            <stop offset=".997" stop-color="#9c55d4"/>
            <stop offset=".998" stop-color="#9c55d4"/>
            <stop offset="1" stop-color="#9c55d4"/>
        </linearGradient>
        <path fill="url(#Q_pn21O5LDDqwJlze0Upoa)"
              d="M7.373,11.443C7.293,9.132,9.094,7,11.529,7h24.946c2.435,0,4.236,2.132,4.155,4.443	c-0.077,2.221,0.023,5.097,0.747,7.443c0.681,2.207,1.801,3.652,3.593,3.981c0.206,0.038,0.363,0.205,0.363,0.415v1.438	c0,0.21-0.157,0.377-0.363,0.415c-1.792,0.328-2.912,1.773-3.593,3.981c-0.724,2.345-0.824,5.222-0.747,7.443	C40.71,38.868,38.909,41,36.475,41H11.529c-2.434,0-4.236-2.132-4.155-4.443c0.077-2.221-0.023-5.097-0.747-7.443	c-0.681-2.207-1.804-3.652-3.596-3.981c-0.206-0.038-0.363-0.205-0.363-0.415v-1.438c0-0.21,0.157-0.377,0.363-0.415	c1.792-0.328,2.915-1.773,3.596-3.981C7.35,16.54,7.451,13.664,7.373,11.443z"/>
        <path fill="#fff"
              d="M27.073,23.464v-0.028c1.853-0.32,3.299-2.057,3.299-3.97c0-1.352-0.52-2.498-1.504-3.312	c-0.981-0.812-2.357-1.241-3.981-1.241H17.45V33.08h7.475c1.942,0,3.555-0.474,4.663-1.372c1.109-0.899,1.696-2.207,1.696-3.783	C31.283,25.544,29.593,23.756,27.073,23.464z M23.59,22.608h-3.181V17.29h3.784c2.076,0,3.219,0.911,3.219,2.565	C27.413,21.63,26.055,22.608,23.59,22.608z M20.409,24.834h3.759c2.716,0,4.092,0.981,4.092,2.916c0,1.932-1.357,2.953-3.925,2.953	h-3.926V24.834z"/>
    </g>

    <g id="HTML" xmlns="http://www.w3.org/2000/svg">
        <path fill="#E65100" d="M41,5H7l3,34l14,4l14-4L41,5L41,5z"/>
        <path fill="#FF6D00" d="M24 8L24 39.9 35.2 36.7 37.7 8z"/>
        <path fill="#FFF" d="M24,25v-4h8.6l-0.7,11.5L24,35.1v-4.2l4.1-1.4l0.3-4.5H24z M32.9,17l0.3-4H24v4H32.9z"/>
        <path fill="#EEE"
              d="M24,30.9v4.2l-7.9-2.6L15.7,27h4l0.2,2.5L24,30.9z M19.1,17H24v-4h-9.1l0.7,12H24v-4h-4.6L19.1,17z"/>
    </g>

    <g id="CSS" xmlns="http://www.w3.org/2000/svg">
        <path fill="#0277BD" d="M41,5H7l3,34l14,4l14-4L41,5L41,5z"/>
        <path fill="#039BE5" d="M24 8L24 39.9 35.2 36.7 37.7 8z"/>
        <path fill="#FFF"
              d="M33.1 13L24 13 24 17 28.9 17 28.6 21 24 21 24 25 28.4 25 28.1 29.5 24 30.9 24 35.1 31.9 32.5 32.6 21 32.6 21z"/>
        <path fill="#EEE"
              d="M24,13v4h-8.9l-0.3-4H24z M19.4,21l0.2,4H24v-4H19.4z M19.8,27h-4l0.3,5.5l7.9,2.6v-4.2l-4.1-1.4L19.8,27z"/>
    </g>

    <g id="JS" xmlns="http://www.w3.org/2000/svg">
        <path fill="#ffd600" d="M6,42V6h36v36H6z"/>
        <path fill="#000001"
              d="M29.538 32.947c.692 1.124 1.444 2.201 3.037 2.201 1.338 0 2.04-.665 2.04-1.585 0-1.101-.726-1.492-2.198-2.133l-.807-.344c-2.329-.988-3.878-2.226-3.878-4.841 0-2.41 1.845-4.244 4.728-4.244 2.053 0 3.528.711 4.592 2.573l-2.514 1.607c-.553-.988-1.151-1.377-2.078-1.377-.946 0-1.545.597-1.545 1.377 0 .964.6 1.354 1.985 1.951l.807.344C36.452 29.645 38 30.839 38 33.523 38 36.415 35.716 38 32.65 38c-2.999 0-4.702-1.505-5.65-3.368L29.538 32.947zM17.952 33.029c.506.906 1.275 1.603 2.381 1.603 1.058 0 1.667-.418 1.667-2.043V22h3.333v11.101c0 3.367-1.953 4.899-4.805 4.899-2.577 0-4.437-1.746-5.195-3.368L17.952 33.029z"/>
    </g>

    <g id='React' xmlns="http://www.w3.org/2000/svg">
        <path fill="#80deea"
              d="M24,34C11.1,34,1,29.6,1,24c0-5.6,10.1-10,23-10c12.9,0,23,4.4,23,10C47,29.6,36.9,34,24,34z M24,16	c-12.6,0-21,4.1-21,8c0,3.9,8.4,8,21,8s21-4.1,21-8C45,20.1,36.6,16,24,16z"/>
        <path fill="#80deea"
              d="M15.1,44.6c-1,0-1.8-0.2-2.6-0.7C7.6,41.1,8.9,30.2,15.3,19l0,0c3-5.2,6.7-9.6,10.3-12.4c3.9-3,7.4-3.9,9.8-2.5	c2.5,1.4,3.4,4.9,2.8,9.8c-0.6,4.6-2.6,10-5.6,15.2c-3,5.2-6.7,9.6-10.3,12.4C19.7,43.5,17.2,44.6,15.1,44.6z M32.9,5.4	c-1.6,0-3.7,0.9-6,2.7c-3.4,2.7-6.9,6.9-9.8,11.9l0,0c-6.3,10.9-6.9,20.3-3.6,22.2c1.7,1,4.5,0.1,7.6-2.3c3.4-2.7,6.9-6.9,9.8-11.9	c2.9-5,4.8-10.1,5.4-14.4c0.5-4-0.1-6.8-1.8-7.8C34,5.6,33.5,5.4,32.9,5.4z"/>
        <path fill="#80deea"
              d="M33,44.6c-5,0-12.2-6.1-17.6-15.6C8.9,17.8,7.6,6.9,12.5,4.1l0,0C17.4,1.3,26.2,7.8,32.7,19	c3,5.2,5,10.6,5.6,15.2c0.7,4.9-0.3,8.3-2.8,9.8C34.7,44.4,33.9,44.6,33,44.6z M13.5,5.8c-3.3,1.9-2.7,11.3,3.6,22.2	c6.3,10.9,14.1,16.1,17.4,14.2c1.7-1,2.3-3.8,1.8-7.8c-0.6-4.3-2.5-9.4-5.4-14.4C24.6,9.1,16.8,3.9,13.5,5.8L13.5,5.8z"/>
        <circle cx="24" cy="24" r="4" fill="#80deea"/>
    </g>

    <g id='Redux' xmlns="http://www.w3.org/2000/svg">
        <path fill="#7e57c2"
              d="M23,4c-6.617,0-12,7.27-12,16.205c0,4.834,1.582,9.169,4.078,12.136C15.03,32.554,15,32.773,15,33	c0,1.657,1.343,3,3,3s3-1.343,3-3s-1.343-3-3-3c-0.315,0-0.612,0.062-0.897,0.152C15.206,27.731,14,24.175,14,20.205	C14,12.924,18.037,7,23,7c3.837,0,7.111,3.547,8.404,8.518c1.122,0.346,2.237,0.782,3.33,1.308C33.579,9.508,28.759,4,23,4z"/>
        <path fill="#7e57c2"
              d="M35.507,20.084c-3.947-2.392-8.374-3.442-12.182-2.959C22.775,16.444,21.943,16,21,16	c-1.657,0-3,1.343-3,3s1.343,3,3,3c1.272,0,2.353-0.795,2.789-1.912c3.118-0.379,6.812,0.531,10.163,2.563	c6.403,3.881,9.67,10.569,7.282,14.911c-0.827,1.504-2.286,2.572-4.218,3.09c-2.286,0.611-5.007,0.394-7.727-0.528	c-0.839,0.772-1.749,1.498-2.725,2.168c2.552,1.117,5.196,1.704,7.669,1.704c1.24,0,2.438-0.147,3.559-0.447	c2.741-0.733,4.841-2.304,6.071-4.542C47.016,33.276,43.267,24.787,35.507,20.084z"/>
        <path fill="#7e57c2"
              d="M35,28.992C35,27.34,33.657,26,32,26s-3,1.34-3,2.992c0,0.669,0.228,1.281,0.6,1.779	c-1.279,2.802-3.744,5.567-7.062,7.578c-3.865,2.344-8.185,3.202-11.555,2.302c-1.932-0.518-3.391-1.586-4.218-3.09	c-1.702-3.094-0.521-7.376,2.61-10.988c-0.323-1.144-0.562-2.34-0.706-3.575c-5.07,4.797-7.109,11.323-4.532,16.009	c1.23,2.238,3.33,3.809,6.071,4.542c1.121,0.3,2.318,0.447,3.559,0.447c3.346,0,7.007-1.068,10.326-3.08	c3.836-2.325,6.683-5.577,8.209-8.962C33.815,31.801,35,30.541,35,28.992z"/>
    </g>
    <g id="Typescript" xmlns="http://www.w3.org/2000/svg">
        <rect width="36" height="36" x="6" y="6" fill="#1976d2"/>
        <polygon fill="#fff"
                 points="27.49,22 14.227,22 14.227,25.264 18.984,25.264 18.984,40 22.753,40 22.753,25.264 27.49,25.264"/>
        <path fill="#fff"
              d="M39.194,26.084c0,0-1.787-1.192-3.807-1.192s-2.747,0.96-2.747,1.986 c0,2.648,7.381,2.383,7.381,7.712c0,8.209-11.254,4.568-11.254,4.568V35.22c0,0,2.152,1.622,4.733,1.622s2.483-1.688,2.483-1.92 c0-2.449-7.315-2.449-7.315-7.878c0-7.381,10.658-4.469,10.658-4.469L39.194,26.084z"/>
    </g>


    <g id="unitTests">
        <path d="M46.7402812,46.7402812 C45.1089375,48.39975 42.43725,48.39975 40.7777812,46.7402812 L33.1558125,39.1183125 L33.3245625,33.3245625 L39.1183125,33.1558125 L46.7402812,40.7777812 C48.39975,42.4370625 48.39975,45.1089375 46.7402812,46.7402812 Z"
              id="Shape" fill="#47568C">

        </path>
        <path d="M46.7402812,46.7402812 C45.1089375,48.39975 42.43725,48.39975 40.7777812,46.7402812 L33.1558125,39.1183125 L33.3245625,33.3245625 L46.7402812,46.7402812 Z"
              id="Shape" fill="#2C3B73">

        </path>
        <path d="M39.1183125,33.1558125 L33.1558125,39.1183125 L27.0527812,33.0152812 C26.5184062,32.4809062 26.5184062,31.5809062 27.0527812,31.0465312 L31.0464375,27.052875 C31.5808125,26.5185 32.4808125,26.5185 33.0151875,27.052875 L39.1183125,33.1558125 Z"
              id="Shape" fill="#FDBF00">

        </path>
        <path d="M36.1370625,36.1370625 L33.1558125,39.1183125 L27.0527812,33.0152812 C26.5184062,32.4809062 26.5184062,31.5809062 27.0527812,31.0465312 L29.04975,29.0495625 L36.1370625,36.1370625 Z"
              id="Shape" fill="#FF9100">

        </path>
        <path d="M31.18725,5.3683125 C24.0434062,-1.8035625 12.51225,-1.77534375 5.3683125,5.3683125 C-1.8035625,12.5121563 -1.77534375,24.0433125 5.3683125,31.1870625 C12.5121562,38.3590313 24.0433125,38.3309063 31.18725,31.1870625 C38.3590312,24.0434063 38.3309062,12.5121563 31.18725,5.3683125 Z"
              id="Shape" fill="#47568C">

        </path>
        <path d="M31.18725,31.1870625 C24.0434062,38.3309063 12.51225,38.3590313 5.3683125,31.1870625 C-1.77534375,24.0434063 -1.8035625,12.5121563 5.3683125,5.3683125 L31.18725,31.1870625 Z"
              id="Shape" fill="#2C3B73">

        </path>
        <path d="M29.2184062,29.2184062 C23.1714375,35.2651875 13.3840312,35.2651875 7.3370625,29.2184062 C1.29028125,23.1714375 1.29028125,13.3840312 7.3370625,7.3370625 C13.3840312,1.29009375 23.1714375,1.29009375 29.2184062,7.3370625 C35.2651875,13.3840312 35.2651875,23.1715312 29.2184062,29.2184062 Z"
              id="Shape" fill="#EDF5FF">

        </path>
        <path d="M29.2184062,29.2184062 C23.1714375,35.2651875 13.3840312,35.2651875 7.3370625,29.2184062 C1.29028125,23.1714375 1.29028125,13.3840312 7.3370625,7.3370625 L29.2184062,29.2184062 Z"
              id="Shape" fill="#D7E9FF">

        </path>
        <path d="M28.1215313,14.3120625 L28.1215313,9.84028125 C28.1215313,9.0526875 27.502875,8.43403125 26.7152813,8.43403125 L21.0902813,8.43403125 C20.3026875,8.43403125 19.6840313,9.0526875 19.6840313,9.84028125 C19.6840313,10.6276875 19.065375,11.2465313 18.2777813,11.2465313 C17.4901875,11.2465313 16.8715313,10.6276875 16.8715313,9.84028125 C16.8715313,9.0526875 16.252875,8.43403125 15.4652813,8.43403125 L9.84028125,8.43403125 C9.44653125,8.43403125 9.10903125,8.60278125 8.82778125,8.82778125 C8.6026875,9.1089375 8.43403125,9.4464375 8.43403125,9.84028125 L8.43403125,14.3120625 C6.8026875,14.8745625 5.62153125,16.4495625 5.62153125,18.2777813 C5.62153125,20.1058125 6.8026875,21.6808125 8.43403125,22.2433125 L8.43403125,26.7152813 C8.43403125,27.5026875 9.0526875,28.1215313 9.84028125,28.1215313 L15.4652813,28.1215313 C16.252875,28.1215313 16.8715313,27.5026875 16.8715313,26.7152813 C16.8715313,25.9276875 17.4901875,25.3090313 18.2777813,25.3090313 C19.065375,25.3090313 19.6840313,25.9276875 19.6840313,26.7152813 C19.6840313,27.5026875 20.3026875,28.1215313 21.0902813,28.1215313 L26.7152813,28.1215313 C27.1090313,28.1215313 27.4465313,27.9527813 27.7277813,27.7277813 C27.952875,27.446625 28.1215313,27.109125 28.1215313,26.7152813 L28.1215313,22.2433125 C29.752875,21.6808125 30.9340313,20.1058125 30.9340313,18.2777813 C30.9340313,16.4495625 29.7527813,14.8745625 28.1215313,14.3120625 Z"
              id="Shape" fill="#979FEF">

        </path>
        <path d="M8.82778125,8.82778125 L27.7276875,27.7276875 C27.4465312,27.9527813 27.1090312,28.1214375 26.7151875,28.1214375 L21.0901875,28.1214375 C20.3025937,28.1214375 19.6839375,27.5025938 19.6839375,26.7151875 C19.6839375,25.9275938 19.0652812,25.3089375 18.2776875,25.3089375 C17.4900937,25.3089375 16.8714375,25.9275938 16.8714375,26.7151875 C16.8714375,27.5025938 16.2527812,28.1214375 15.4651875,28.1214375 L9.8401875,28.1214375 C9.05259375,28.1214375 8.4339375,27.5025938 8.4339375,26.7151875 L8.4339375,22.2432188 C6.80259375,21.6807188 5.6214375,20.1057188 5.6214375,18.2776875 C5.6214375,16.4494688 6.80259375,14.8744688 8.4339375,14.3119688 L8.4339375,9.8401875 C8.43403125,9.44653125 8.60278125,9.10903125 8.82778125,8.82778125 Z"
              id="Shape" fill="#737EE6">

        </path>
    </g>





    <svg xmlns="http://www.w3.org/2000/svg">
        <symbol id="StoryBook" viewBox="0 0 1024 1024">
            <path d="M879.01184 76.02176l-63.747413 4.70016v124.740267l-56.705707-24.302934-56.705707 24.302934V89.081173L262.42048 121.480533l37.75488 798.788267 578.8672 27.706027zM581.3248 240.274773v0.006827c108.076373 0 170.164907 59.01312 167.099733 178.5856l-123.398826 3.072c2.300587-64.385707-25.30304-70.519467-40.63232-70.519467-14.56128 0-39.082667 4.601173-39.082667 39.092907 0 85.080747 210.015573 80.479573 210.015573 252.177067 0 96.57344-75.12064 141.021867-170.932906 141.021866-98.87744 0-185.490773-33.723733-175.527254-181.6576h129.539414c-1.532587 59.784533 11.502933 81.257813 44.458666 81.257814 25.2928 0 36.785493-14.564693 36.785494-39.092907 0-87.381333-206.946987-90.453333-206.946987-250.65472 0-91.979093 60.545707-153.2928 168.618667-153.2928z"
                  fill="#EC407A"/>
            <path d="M212.524373 121.480533H144.95744l28.3136 798.788267h77.0048z" fill="#BA68C8"/>
        </symbol>
    </svg>




    <svg xmlns="http://www.w3.org/2000/svg">
        <symbol id="PostMan" viewBox="0 0 256 256">
            <g>
                <path d="M254.953118,144.253071 C263.911504,74.1217108 214.38443,10.0052669 144.381048,1.04688158 C74.3776647,-7.9115038 10.0052669,41.6155696 1.04688158,111.618952 C-7.9115038,181.622335 41.6155696,245.866756 111.618952,254.953118 C181.750312,263.911504 245.866756,214.38443 254.953118,144.253071 Z" fill="#FF6C37"/>
                <g transform="translate(50.181225, 45.198924)">
                    <path d="M124.018448,36.9853339 L70.012182,90.9916 L54.7829269,75.7623449 C107.893354,22.6519173 113.140409,27.2590869 124.018448,36.9853339 L124.018448,36.9853339 Z" fill="#FFFFFF"/>
                    <path d="M70.012182,92.2713693 C69.6282512,92.2713693 69.3722974,92.1433924 69.1163435,91.8874385 L53.7591114,76.6581834 C53.2472037,76.1462757 53.2472037,75.3784141 53.7591114,74.8665063 C107.765378,20.8602402 113.396363,25.9793176 124.78631,36.2174723 C125.042264,36.4734262 125.170241,36.72938 125.170241,37.1133108 C125.170241,37.4972416 125.042264,37.7531955 124.78631,38.0091494 L70.7800436,91.8874385 C70.6520667,92.1433924 70.2681359,92.2713693 70.012182,92.2713693 Z M56.574604,75.7623449 L70.012182,89.1999229 L122.098794,37.1133108 C112.628501,28.6668332 106.229654,26.1072945 56.574604,75.7623449 L56.574604,75.7623449 Z" fill="#FF6C37"/>
                    <path d="M85.497391,106.476809 L70.7800436,91.7594616 L124.78631,37.7531955 C139.247703,52.342566 117.619601,76.0182987 85.497391,106.476809 Z" fill="#FFFFFF"/>
                    <path d="M85.497391,107.756578 C85.1134602,107.756578 84.8575064,107.628601 84.6015525,107.372648 L69.8842051,92.6553001 C69.6282512,92.3993463 69.6282512,92.1433924 69.6282512,91.7594616 C69.6282512,91.3755308 69.7562282,91.1195769 70.012182,90.8636231 L124.018448,36.857357 C124.530356,36.3454492 125.298217,36.3454492 125.810125,36.857357 C129.137525,39.9288034 130.929203,44.2800191 130.801226,48.7592118 C130.545272,62.9646515 114.420178,81.0093992 86.5212065,107.372648 C86.1372757,107.628601 85.7533449,107.756578 85.497391,107.756578 L85.497391,107.756578 Z M72.5717207,91.7594616 C80.7622445,100.077962 84.2176217,103.405363 85.497391,104.685132 C106.997516,84.2088225 127.857756,63.2206053 127.985733,48.7592118 C128.11371,45.4318115 126.833941,42.1044113 124.658333,39.5448726 L72.5717207,91.7594616 Z" fill="#FF6C37"/>
                    <path d="M55.0388808,76.1462757 L65.9169201,87.024315 C66.172874,87.2802689 66.172874,87.5362228 65.9169201,87.7921767 C65.7889432,87.9201536 65.7889432,87.9201536 65.6609663,87.9201536 L43.1370259,92.7832771 C41.9852335,92.911254 40.961418,92.1433924 40.7054642,90.9916 C40.5774872,90.3517153 40.8334411,89.7118307 41.2173719,89.3278999 L54.2710192,76.2742526 C54.526973,76.0182987 54.9109038,75.8903218 55.0388808,76.1462757 Z" fill="#FFFFFF">

                    </path>
                    <path d="M42.7530951,94.0630464 C40.8334411,94.0630464 39.4256948,92.5273232 39.4256948,90.6076692 C39.4256948,89.7118307 39.8096256,88.8159921 40.4495103,88.1761075 L53.5031576,75.1224602 C54.2710192,74.4825755 55.2948346,74.4825755 56.0626962,75.1224602 L66.9407356,86.0004996 C67.7085972,86.6403842 67.7085972,87.7921767 66.9407356,88.5600383 C66.6847817,88.8159921 66.4288279,88.9439691 66.0448971,89.071946 L43.5209567,93.9350695 C43.2650028,93.9350695 43.009049,94.0630464 42.7530951,94.0630464 L42.7530951,94.0630464 Z M54.65495,77.5540219 L42.1132104,90.0957615 C41.8572566,90.3517153 41.7292796,90.7356461 41.9852335,91.1195769 C42.1132104,91.5035077 42.4971412,91.6314847 42.881072,91.5035077 L63.9972661,86.8963381 L54.65495,77.5540219 Z" fill="#FF6C37">

                    </path>
                    <path d="M152.557304,7.03873136 C144.366781,-0.895838537 131.185156,-0.639884669 123.250587,7.67861603 C115.316017,15.9971167 115.57197,29.050764 123.890471,36.9853339 C130.673249,43.5121575 140.911403,44.6639499 148.97395,39.8008264 L134.38458,25.211456 L152.557304,7.03873136 Z" fill="#FFFFFF">

                    </path>
                    <path d="M138.223888,44.0240653 C126.066079,44.0240653 116.211855,34.1698413 116.211855,22.0120326 C116.211855,9.85422391 126.066079,-1.81866161e-14 138.223888,-1.81866161e-14 C143.854873,-1.81866161e-14 149.357881,2.17560788 153.453143,6.14289283 C153.709097,6.39884669 153.837074,6.65480056 153.837074,7.03873136 C153.837074,7.42266217 153.709097,7.67861603 153.453143,7.9345699 L136.176257,25.211456 L149.741812,38.777011 C150.25372,39.2889187 150.25372,40.0567803 149.741812,40.568688 C149.613835,40.696665 149.613835,40.696665 149.485858,40.8246419 C146.158458,42.8722729 142.191173,44.0240653 138.223888,44.0240653 Z M138.223888,2.68751561 C127.473825,2.68751561 118.771394,11.3899471 118.899371,22.1400096 C118.899371,32.890072 127.601802,41.5925035 138.351865,41.4645266 C141.295334,41.4645266 144.238804,40.8246419 146.926319,39.4168956 L133.488741,26.1072945 C133.232787,25.8513406 133.10481,25.5953868 133.10481,25.211456 C133.10481,24.8275252 133.232787,24.5715713 133.488741,24.3156174 L150.63765,7.1667083 C147.182273,4.22323882 142.831057,2.68751561 138.223888,2.68751561 L138.223888,2.68751561 Z" fill="#FF6C37">

                    </path>
                    <path d="M152.941235,7.42266217 L152.685281,7.1667083 L134.38458,25.211456 L148.845973,39.6728495 C150.25372,38.777011 151.661466,37.7531955 152.813258,36.6014031 C161.003782,28.5388563 161.003782,15.485209 152.941235,7.42266217 L152.941235,7.42266217 Z" fill="#FFFFFF">

                    </path>
                    <path d="M148.97395,41.0805958 C148.590019,41.0805958 148.334066,40.9526188 148.078112,40.696665 L133.488741,26.1072945 C133.232787,25.8513406 133.10481,25.5953868 133.10481,25.211456 C133.10481,24.8275252 133.232787,24.5715713 133.488741,24.3156174 L151.661466,6.14289283 C152.173374,5.63098509 152.941235,5.63098509 153.453143,6.14289283 L153.837074,6.39884669 C162.411528,14.9733013 162.411528,28.7948101 153.965051,37.4972416 C152.685281,38.777011 151.277535,39.9288034 149.741812,40.8246419 C149.357881,40.9526188 149.101927,41.0805958 148.97395,41.0805958 L148.97395,41.0805958 Z M136.176257,25.211456 L149.101927,38.1371263 C150.125743,37.4972416 151.149558,36.6014031 151.91742,35.8335415 C159.212105,28.5388563 159.596036,16.6370014 152.557304,8.95838537 L136.176257,25.211456 Z" fill="#FF6C37">

                    </path>
                    <path d="M126.194056,39.2889187 C123.12261,36.2174723 118.131509,36.2174723 115.060063,39.2889187 L66.8127587,87.5362228 L74.8753055,95.5987696 L125.938102,50.8068428 C129.265502,47.9913502 129.521456,43.0002498 126.705964,39.6728495 C126.45001,39.5448726 126.322033,39.4168956 126.194056,39.2889187 L126.194056,39.2889187 Z" fill="#FFFFFF">

                    </path>
                    <path d="M74.7473286,96.878539 C74.3633978,96.878539 74.1074439,96.750562 73.85149,96.4946082 L65.7889432,88.4320613 C65.2770355,87.9201536 65.2770355,87.152292 65.7889432,86.6403842 L114.036247,38.3930802 C117.619601,34.809726 123.378563,34.809726 126.961918,38.3930802 C130.545272,41.9764343 130.545272,47.7353963 126.961918,51.3187505 C126.833941,51.4467274 126.705964,51.5747044 126.577987,51.7026813 L75.5151902,96.4946082 C75.3872133,96.750562 75.1312594,96.878539 74.7473286,96.878539 L74.7473286,96.878539 Z M68.6044358,87.5362228 L74.8753055,93.8070925 L125.042264,49.7830273 C127.857756,47.4794425 128.11371,43.2562037 125.810125,40.4407111 C123.50654,37.6252186 119.283302,37.3692647 116.467809,39.6728495 C116.339832,39.8008264 116.211855,39.9288034 115.955901,40.0567803 L68.6044358,87.5362228 Z" fill="#FF6C37">

                    </path>
                    <path d="M29.8274248,142.438327 C29.3155171,142.694281 29.0595632,143.206189 29.1875401,143.718097 L31.363148,152.932436 C31.8750557,154.212205 31.1071941,155.747929 29.6994479,156.131859 C28.6756324,156.51579 27.52384,156.131859 26.8839553,155.363998 L12.8064926,141.414512 L58.7502118,95.4707927 L74.6193516,95.7267466 L85.3694141,106.476809 C82.8098754,108.652417 67.3246664,123.625718 29.8274248,142.438327 L29.8274248,142.438327 Z" fill="#FFFFFF">

                    </path>
                    <path d="M28.8036093,157.411629 C27.7797938,157.411629 26.7559784,157.027698 26.1160937,156.259836 L12.1666079,142.31035 C11.910654,142.054397 11.7826771,141.798443 11.7826771,141.414512 C11.7826771,141.030581 11.910654,140.774627 12.1666079,140.518673 L58.1103272,94.5749541 C58.366281,94.3190003 58.7502118,94.1910233 59.0061657,94.1910233 L74.8753055,94.4469772 C75.2592363,94.4469772 75.5151902,94.5749541 75.7711441,94.830908 L86.5212065,105.58097 C86.7771604,105.836924 86.9051373,106.220855 86.9051373,106.604786 C86.9051373,106.988717 86.7771604,107.244671 86.3932296,107.500624 L85.497391,108.268486 C71.931836,120.170341 53.5031576,132.072196 30.5952864,143.462143 L32.7708943,152.548505 C33.1548251,154.212205 32.3869635,156.003882 30.8512403,156.899721 C30.0833787,157.283652 29.443494,157.411629 28.8036093,157.411629 Z M14.7261466,141.414512 L27.9077708,154.468159 C28.2917016,155.108044 29.0595632,155.363998 29.6994479,154.980067 C30.3393325,154.596136 30.5952864,153.828275 30.2113556,153.18839 L28.0357477,143.974051 C27.7797938,142.822258 28.2917016,141.798443 29.3155171,141.286535 C51.9674343,129.896588 70.2681359,118.12271 83.705714,106.476809 L74.2354208,97.0065159 L59.5180734,96.750562 L14.7261466,141.414512 Z" fill="#FF6C37">

                    </path>
                    <path d="M1.9284532,152.420528 L12.9344695,141.414512 L29.3155171,157.795559 L3.20822254,156.003882 C2.05643013,155.875905 1.28856853,154.85209 1.41654546,153.700298 C1.41654546,153.18839 1.5445224,152.676482 1.9284532,152.420528 L1.9284532,152.420528 Z" fill="#FFFFFF">

                    </path>
                    <path d="M29.3155171,158.947352 L3.0802456,157.155675 C1.16059159,157.027698 -0.119177745,155.363998 0.00879918845,153.444344 C0.136776122,152.676482 0.39272999,151.908621 1.03261466,151.396713 L12.038631,140.390696 C12.5505387,139.878789 13.3184003,139.878789 13.830308,140.390696 L30.2113556,156.771744 C30.5952864,157.155675 30.7232633,157.667583 30.4673095,158.17949 C30.2113556,158.691398 29.8274248,158.947352 29.3155171,158.947352 L29.3155171,158.947352 Z M12.9344695,143.206189 L2.82429173,153.316367 C2.44036093,153.572321 2.44036093,154.212205 2.82429173,154.468159 C2.95226867,154.596136 3.0802456,154.724113 3.33619947,154.724113 L25.9881168,156.259836 L12.9344695,143.206189 Z" fill="#FF6C37">

                    </path>
                    <path d="M54.2710192,101.357732 C53.5031576,101.357732 52.9912498,100.717847 52.9912498,100.077962 C52.9912498,99.6940315 53.1192268,99.4380776 53.3751806,99.1821238 L65.7889432,86.7683612 C66.3008509,86.2564534 67.0687125,86.2564534 67.5806203,86.7683612 L75.6431671,94.830908 C76.0270979,95.2148388 76.1550749,95.5987696 76.0270979,96.1106774 C75.899121,96.4946082 75.5151902,96.878539 75.0032825,97.0065159 L54.526973,101.357732 C54.3989961,101.357732 54.2710192,101.357732 54.2710192,101.357732 L54.2710192,101.357732 Z M66.6847817,89.4558768 L58.2383041,97.9023544 L72.059813,94.9588849 L66.6847817,89.4558768 Z" fill="#FF6C37">

                    </path>
                    <path d="M74.6193516,95.7267466 L60.5418889,98.798193 C59.5180734,99.0541468 58.494258,98.4142622 58.2383041,97.3904467 C58.1103272,96.750562 58.2383041,96.1106774 58.7502118,95.5987696 L66.5568048,87.7921767 L74.6193516,95.7267466 Z" fill="#FFFFFF">

                    </path>
                    <path d="M60.2859351,100.077962 C58.494258,100.077962 57.0865117,98.670216 57.0865117,96.878539 C57.0865117,95.9827004 57.4704425,95.2148388 57.9823502,94.5749541 L65.7889432,86.7683612 C66.3008509,86.2564534 67.0687125,86.2564534 67.5806203,86.7683612 L75.6431671,94.830908 C76.0270979,95.2148388 76.1550749,95.5987696 76.0270979,96.1106774 C75.899121,96.4946082 75.5151902,96.878539 75.0032825,97.0065159 L60.9258197,100.077962 C60.6698659,100.077962 60.413912,100.077962 60.2859351,100.077962 L60.2859351,100.077962 Z M66.6847817,89.4558768 L59.7740273,96.3666312 C59.5180734,96.6225851 59.5180734,96.878539 59.6460504,97.1344928 C59.7740273,97.3904467 60.0299812,97.5184236 60.413912,97.5184236 L72.1877899,94.9588849 L66.6847817,89.4558768 Z" fill="#FF6C37">

                    </path>
                    <path d="M153.069212,19.7084478 C152.813258,18.9405862 151.91742,18.5566554 151.149558,18.8126093 C150.381697,19.0685632 149.997766,19.9644017 150.25372,20.7322633 C150.25372,20.8602402 150.381697,20.9882172 150.381697,21.1161941 C151.149558,22.6519173 150.893604,24.5715713 149.869789,25.9793176 C149.357881,26.6192023 149.485858,27.5150408 149.997766,28.0269485 C150.63765,28.5388563 151.533489,28.4108793 152.045397,27.7709947 C153.965051,25.3394329 154.348981,22.2679865 153.069212,19.7084478 L153.069212,19.7084478 Z" fill="#FF6C37">

                    </path>
                </g>
            </g>
        </symbol>
    </svg>

    <svg xmlns="http://www.w3.org/2000/svg">
        <symbol id="Formik" viewBox="0 0 96 96">
            <desc>Formik Streamline Icon: https://streamlinehq.com</desc>
            <title>Formik</title>
            <path d="M82.18 41.178 71.168 34.848l0.0044 -13.2016 11.0124 6.3296Zm-0.004 14.3588 -11.0088 -6.328 0.0044 -12.6112 11.0088 6.3276zm0.1052 14.5268 -11.144 -6.4052 0.0048 -12.6116 11.144 6.4052zm-28.608 -26.0272 15.9892 -9.1908 0.0012 -12.6092 -15.9892 9.1912zm-9.9016 19.9332 25.8296 -14.8472 0.0012 -12.6088 -25.8296 14.8472zm-17.3696 24.5692 43.2904 -24.8832 0.0012 -12.6088L26.404 75.93zM38.3592 96l-11.0788 -6.3708 43.1348 -24.8052 11.0788 6.3708ZM13.82 55.11 24.832 61.44l-0.0044 13.4436 -11.0124 -6.33Zm0.0048 -14.3588 11.0088 6.328 -0.004 12.6112 -11.0092 -6.3276zm-0.106 -14.4456 11.144 6.4052 -0.004 12.6116 -11.144 -6.4052Zm28.6068 25.9424L26.336 61.4392l-0.0016 12.6092 15.9892 -9.1912zm9.9016 -19.9328 -25.8296 14.8468 -0.0016 12.6092 25.8296 -14.8472zm17.4344 -24.6064L26.306 32.6292l-0.0016 12.6088L69.66 20.3172ZM58.136 0l11.0788 6.3708L25.5844 31.4608 14.5056 25.09Z" fill="#000000" stroke-width="1"></path>
        </symbol>
    </svg>


    <svg xmlns="http://www.w3.org/2000/svg" xmlns:xlink="http://www.w3.org/1999/xlink" style="display: none;">
        <symbol id="RestApI" viewBox="0 0 256 256">
            <g style="stroke: none; stroke-width: 0; stroke-dasharray: none; stroke-linecap: butt; stroke-linejoin: miter; stroke-miterlimit: 10; fill: none; fill-rule: nonzero; opacity: 1;" transform="translate(1.4065934065934016 1.4065934065934016) scale(2.81 2.81)">
                <path d="M 78.796 37.03 c -0.27 -2.828 -0.96 -5.534 -2.008 -8.054 C 72.57 18.822 62.56 11.682 50.88 11.682 c -5.449 0 -10.534 1.554 -14.837 4.243 c -6.649 4.156 -11.43 11.021 -12.802 19.051 h -3.198 C 8.974 34.976 0 43.95 0 55.02 v 0 c 0 11.07 8.974 20.044 20.044 20.044 h 49.912 C 81.026 75.064 90 66.09 90 55.02 v 0 C 90 47.124 85.432 40.297 78.796 37.03 z" style="stroke: none; stroke-width: 1; stroke-dasharray: none; stroke-linecap: butt; stroke-linejoin: miter; stroke-miterlimit: 10; fill: rgb(105,227,255); fill-rule: nonzero; opacity: 1;" />
                <path d="M 11.395 6.861 L 11.395 6.861 c 0.271 -0.112 0.292 -0.362 0.292 -0.436 c 0 -0.074 -0.021 -0.324 -0.292 -0.436 c -0.136 -0.056 -0.242 -0.163 -0.299 -0.299 c -0.056 -0.136 -0.056 -0.286 0 -0.423 l 0.36 -0.868 c 0.117 -0.281 0.44 -0.415 0.722 -0.299 c 0.271 0.112 0.462 -0.05 0.515 -0.102 c 0.052 -0.052 0.215 -0.244 0.102 -0.515 c -0.056 -0.136 -0.056 -0.286 0 -0.423 c 0.056 -0.136 0.163 -0.243 0.299 -0.299 l 0.869 -0.36 c 0.281 -0.116 0.605 0.018 0.722 0.299 c 0.112 0.27 0.362 0.291 0.436 0.291 s 0.324 -0.021 0.436 -0.292 c 0.056 -0.136 0.163 -0.243 0.299 -0.299 c 0.136 -0.056 0.286 -0.056 0.423 0 l 0.868 0.36 c 0.136 0.056 0.243 0.163 0.299 0.299 s 0.056 0.286 0 0.423 c -0.112 0.271 0.05 0.462 0.102 0.515 c 0.052 0.052 0.244 0.215 0.515 0.102 c 0.136 -0.056 0.286 -0.056 0.423 0 c 0.136 0.056 0.243 0.163 0.299 0.299 l 0.36 0.868 c 0.056 0.136 0.056 0.286 0 0.423 c -0.056 0.136 -0.163 0.243 -0.299 0.299 c -0.27 0.112 -0.292 0.362 -0.292 0.436 s 0.021 0.324 0.292 0.436 c 0.281 0.117 0.415 0.44 0.299 0.722 l -0.36 0.868 c -0.056 0.136 -0.163 0.242 -0.299 0.299 c -0.136 0.056 -0.286 0.056 -0.423 0 c -0.27 -0.112 -0.462 0.05 -0.515 0.102 c -0.052 0.052 -0.214 0.244 -0.102 0.515 c 0.117 0.281 -0.017 0.605 -0.299 0.722 l -0.868 0.36 c -0.068 0.028 -0.14 0.042 -0.211 0.042 c -0.072 0 -0.143 -0.014 -0.211 -0.042 c -0.136 -0.056 -0.243 -0.163 -0.299 -0.299 c -0.112 -0.271 -0.362 -0.292 -0.436 -0.292 l 0 0 c -0.074 0 -0.324 0.021 -0.436 0.292 c -0.117 0.281 -0.44 0.415 -0.722 0.299 l -0.869 -0.36 c -0.281 -0.117 -0.415 -0.44 -0.299 -0.722 c 0.112 -0.271 -0.05 -0.462 -0.102 -0.515 c -0.052 -0.052 -0.244 -0.215 -0.515 -0.102 c -0.281 0.116 -0.605 -0.018 -0.722 -0.299 l -0.36 -0.868 C 10.98 7.301 11.114 6.977 11.395 6.861 z" />
              <path d="M 41.939 58.51 H 36.45 v -3.874 h 3.36 c 0.847 0 1.534 -0.687 1.534 -1.534 s -0.687 -1.534 -1.534 -1.534 h -3.36 v -3.874 h 5.489 c 0.847 0 1.534 -0.687 1.534 -1.534 c 0 -0.847 -0.687 -1.534 -1.534 -1.534 h -7.023 c -0.847 0 -1.534 0.687 -1.534 1.534 v 13.885 c 0 0.847 0.687 1.534 1.534 1.534 h 7.023 c 0.847 0 1.534 -0.687 1.534 -1.534 S 42.787 58.51 41.939 58.51 z" style="stroke: none; stroke-width: 1; stroke-dasharray: none; stroke-linecap: butt; stroke-linejoin: miter; stroke-miterlimit: 10; fill: rgb(69,118,163); fill-rule: nonzero; opacity: 1;" transform=" matrix(1 0 0 1 0 0) " stroke-linecap="round" />
                <path d="M 29.447 60.044 v -4.288 c 0 -1.013 -0.376 -1.93 -0.976 -2.655 c 0.6 -0.725 0.976 -1.642 0.976 -2.655 v -1.633 c 0 -2.31 -1.879 -4.189 -4.189 -4.189 h -4.78 c -0.847 0 -1.534 0.687 -1.534 1.534 v 6.942 v 6.942 c 0 0.847 0.687 1.534 1.534 1.534 s 1.534 -0.687 1.534 -1.534 v -5.408 h 3.246 c 0.618 0 1.121 0.502 1.121 1.121 v 4.288 c 0 0.847 0.687 1.534 1.534 1.534 C 28.761 61.578 29.447 60.891 29.447 60.044 z M 22.013 51.567 v -3.874 h 3.246 c 0.618 0 1.121 0.502 1.121 1.121 v 1.633 c 0 0.618 -0.503 1.121 -1.121 1.121 H 22.013 z" style="stroke: none; stroke-width: 1; stroke-dasharray: none; stroke-linecap: butt; stroke-linejoin: miter; stroke-miterlimit: 10; fill: rgb(69,118,163); fill-rule: nonzero; opacity: 1;" transform=" matrix(1 0 0 1 0 0) " stroke-linecap="round" />
                <path d="M 69.521 44.625 h -8.759 c -0.847 0 -1.534 0.687 -1.534 1.534 c 0 0.847 0.687 1.534 1.534 1.534 h 2.845 v 12.351 c 0 0.847 0.687 1.534 1.534 1.534 s 1.534 -0.687 1.534 -1.534 V 47.693 h 2.845 c 0.847 0 1.534 -0.687 1.534 -1.534 C 71.056 45.311 70.368 44.625 69.521 44.625 z" style="stroke: none; stroke-width: 1; stroke-dasharray: none; stroke-linecap: butt; stroke-linejoin: miter; stroke-miterlimit: 10; fill: rgb(69,118,163); fill-rule: nonzero; opacity: 1;" transform=" matrix(1 0 0 1 0 0) " stroke-linecap="round" />
                <path d="M 50.729 47.693 h 1.287 c 0.7 0 1.27 0.521 1.27 1.163 c 0 0.847 0.687 1.534 1.534 1.534 s 1.534 -0.687 1.534 -1.534 c 0 -2.333 -1.947 -4.231 -4.339 -4.231 h -1.287 c -2.475 0 -4.488 1.963 -4.488 4.375 v 1.261 c 0 2.412 2.013 4.375 4.488 4.375 h 1.139 c 0.783 0 1.419 0.586 1.419 1.306 v 1.261 c 0 0.72 -0.636 1.306 -1.419 1.306 H 50.58 c -0.701 0 -1.271 -0.522 -1.271 -1.164 c 0 -0.847 -0.687 -1.534 -1.534 -1.534 s -1.534 0.687 -1.534 1.534 c 0 2.333 1.947 4.232 4.34 4.232 h 1.287 c 2.474 0 4.487 -1.963 4.487 -4.375 v -1.261 c 0 -2.412 -2.013 -4.375 -4.487 -4.375 h -1.139 c -0.783 0 -1.42 -0.586 -1.42 -1.306 v -1.261 C 49.309 48.279 49.946 47.693 50.729 47.693 z" style="stroke: none; stroke-width: 1; stroke-dasharray: none; stroke-linecap: butt; stroke-linejoin: miter; stroke-miterlimit: 10; fill: rgb(69,118,163); fill-rule: nonzero; opacity: 1;" transform=" matrix(1 0 0 1 0 0) " stroke-linecap="round" />
                <path d="M 34.58 66.32 h -2.631 c -2.497 0 -4.528 2.031 -4.528 4.528 v 10.89 c 0 0.847 0.687 1.534 1.534 1.534 c 0.847 0 1.534 -0.687 1.534 -1.534 V 76.33 h 5.55 v 5.408 c 0 0.847 0.687 1.534 1.534 1.534 s 1.534 -0.687 1.534 -1.534 v -10.89 C 39.108 68.351 37.077 66.32 34.58 66.32 z M 30.49 73.262 v -2.414 c 0 -0.805 0.655 -1.46 1.46 -1.46 h 2.631 c 0.805 0 1.46 0.655 1.46 1.46 v 2.414 H 30.49 z" style="stroke: none; stroke-width: 1; stroke-dasharray: none; stroke-linecap: butt; stroke-linejoin: miter; stroke-miterlimit: 10; fill: rgb(69,118,163); fill-rule: nonzero; opacity: 1;" transform=" matrix(1 0 0 1 0 0) " stroke-linecap="round" />
                <path d="M 59.309 66.32 c -0.847 0 -1.534 0.687 -1.534 1.534 v 13.885 c 0 0.847 0.687 1.534 1.534 1.534 s 1.534 -0.687 1.534 -1.534 V 67.854 C 60.843 67.007 60.156 66.32 59.309 66.32 z" style="stroke: none; stroke-width: 1; stroke-dasharray: none; stroke-linecap: butt; stroke-linejoin: miter; stroke-miterlimit: 10; fill: rgb(69,118,163); fill-rule: nonzero; opacity: 1;" transform=" matrix(1 0 0 1 0 0) " stroke-linecap="round" />
                <path d="M 50.007 66.32 h -5.083 c -0.847 0 -1.534 0.687 -1.534 1.534 v 7.788 v 6.096 c 0 0.847 0.687 1.534 1.534 1.534 s 1.535 -0.687 1.535 -1.534 v -4.562 h 3.549 c 2.337 0 4.239 -1.902 4.239 -4.24 V 70.56 C 54.245 68.221 52.344 66.32 50.007 66.32 z M 51.177 72.937 c 0 0.646 -0.525 1.172 -1.171 1.172 h -3.55 v -4.72 h 3.55 c 0.645 0 1.171 0.525 1.171 1.172 V 72.937 z" style="stroke: none; stroke-width: 1; stroke-dasharray: none; stroke-linecap: butt; stroke-linejoin: miter; stroke-miterlimit: 10; fill: rgb(69,118,163); fill-rule: nonzero; opacity: 1;" transform=" matrix(1 0 0 1 0 0) " stroke-linecap="round" />


            </g>
        </symbol>
    </svg>


    <svg xmlns="http://www.w3.org/2000/svg" style="display: none;">
        <symbol id="Material Ui" viewBox="0 0 96 96">
            <path fill="#007FFF" d="M80.2285 62.8552c0.8083 -0.4642 1.3079 -1.324 1.3108 -2.2561l0.047 -15.1109c0.003 -0.9321 0.5026 -1.7919 1.3109 -2.2561l8.1912 -4.7053c0.808 -0.464 1.802 -0.4623 2.6084 0.0044S95 39.859 95 40.7907v27.4722c0 0.9349 -0.5001 1.7984 -1.3108 2.2639L62.7754 88.2829c-0.8035 0.4612 -1.7912 0.4622 -2.5955 0.0026L35.9194 74.4097c-0.8136 -0.4647 -1.3158 -1.3296 -1.3161 -2.2665V58.2908c0 -0.0156 0.0183 -0.0261 0.034 -0.0182 0.013 0.0078 0.0313 0 0.0313 -0.0183v-0.0157c0 -0.0104 0.0052 -0.0209 0.0157 -0.0261l19.9808 -11.4788c0.0182 -0.0104 0.0104 -0.0391 -0.0105 -0.0391 -0.0115 0 -0.0209 -0.0094 -0.0209 -0.0209l0.0392 -13.5808c0.0037 -0.9347 -0.4925 -1.8002 -1.3011 -2.2691 -0.8086 -0.469 -1.8062 -0.47 -2.6157 -0.0026L35.9063 39.378c-0.8066 0.4645 -1.7994 0.4645 -2.606 0l-14.8968 -8.5777c-0.8077 -0.4651 -1.8021 -0.4644 -2.6092 0.0019 -0.807 0.4662 -1.3044 1.3273 -1.3049 2.2594v24.5451c0.0006 0.9311 -0.4946 1.792 -1.2996 2.2597 -0.8051 0.4676 -1.7983 0.4712 -2.6067 0.0094l-8.26706 -4.7262C1.5009 54.684 0.998433 53.8166 1 52.8779l0.07312 -42.90179c0.00203 -0.9308 0.49938 -1.79014 1.30544 -2.25559 0.80606 -0.46545 1.79895 -0.46662 2.60611 -0.00309L33.303 23.9825c0.8052 0.4624 1.7955 0.4624 2.6007 0L64.2141 7.71743c0.8084 -0.46423 1.803 -0.4623 2.6095 0.00506 0.8066 0.46736 1.3029 1.32926 1.3021 2.26145V52.8961c0.0004 0.9344 -0.4985 1.7977 -1.3082 2.2639l-14.8263 8.5386c-0.8106 0.4673 -1.3092 1.3326 -1.3071 2.2682 0.0022 0.9357 0.5048 1.7986 1.3175 2.2622l8.1783 4.6557c0.8041 0.4579 1.7906 0.4559 2.5929 -0.0052l17.4557 -10.0243Zm1.7156 -38.4941c0.0007 0.9401 0.5068 1.8072 1.3249 2.2703 0.8181 0.4631 1.822 0.4507 2.6284 -0.0325l7.8336 -4.7001c0.7866 -0.4714 1.2683 -1.3208 1.269 -2.2378v-9.5778c-0.0017 -0.93966 -0.5081 -1.80593 -1.326 -2.26839 -0.818 -0.46246 -1.8213 -0.44979 -2.6273 0.03318l-7.8336 4.70011c-0.7866 0.4714 -1.2683 1.3208 -1.269 2.2378v9.5778Z" />
        </symbol>
    </svg>


    <svg xmlns="http://www.w3.org/2000/svg" style="display: none;">
        <symbol id="Axios" viewBox="-0.5 -0.5 24 24">
            <path fill="#5A29E4" d="M11.417032291666667 10.2626v2.6464374999999998l-0.288434375 0.2323V10.939854166666667h-0.5429197916666666l0.8313541666666667 -0.6772541666666667Zm10.003466666666666 -0.40388958333333336c0.24152395833333334 0 0.46579791666666664 0.03641666666666667 0.672821875 0.10927395833333334 0.199165625 0.06878437500000001 0.370946875 0.14614583333333334 0.5153677083333333 0.23203645833333336l0.025204166666666666 0.015237500000000001-0.29902395833333334 0.5693218750000001c-0.02728854166666667-0.022329166666666667-0.06581354166666667-0.04786875-0.115575-0.07659479166666666l-0.028270833333333332-0.016004166666666667-0.030475000000000002-0.016651041666666668-0.03272708333333334-0.017249999999999998c-0.09200000000000001-0.04985729166666667-0.20127395833333334-0.09202395833333334-0.3277739583333334-0.12652395833333335-0.12652395833333335-0.03833333333333334-0.25688125-0.0575-0.391071875-0.0575-0.36038125 0-0.540571875 0.10158333333333333-0.540571875 0.3047739583333334 0 0.11885729166666667 0.065190625 0.20319062499999999 0.19554791666666668 0.2530479166666667l0.029684375 0.010757291666666668 0.03157708333333333 0.010948958333333333 0.033445833333333334 0.011116666666666667 0.03531458333333334 0.011308333333333333 0.03720729166666667 0.011476041666666667 0.039076041666666665 0.01164375c0.006684375 0.001940625 0.013416666666666667 0.003905208333333333 0.020244791666666668 0.0058937500000000006l0.041903125 0.011907291666666667 0.043771875 0.012075 0.045664583333333335 0.012266666666666667 0.04753333333333333 0.012458333333333333 0.04940208333333333 0.012602083333333333 0.07764895833333334 0.019262500000000002 0.05409791666666667 0.013057291666666667c0.22619062500000003 0.0575 0.42171458333333334 0.12269062500000001 0.5865718750000001 0.19552395833333336 0.16167083333333332 0.06981458333333333 0.28635 0.162509375 0.3740614583333333 0.27808437500000005l0.011236458333333333 0.015213541666666667c0.09202395833333334 0.11883333333333333 0.13802395833333334 0.2760239583333333 0.13802395833333334 0.4715479166666667 0 0.23769062500000002-0.06133333333333334 0.42940520833333334-0.18402395833333335 0.575071875-0.11885729166666667 0.14185729166666666-0.27604791666666667 0.24538125000000002-0.47157187500000003 0.3105479166666667-0.19552395833333336 0.06133333333333334-0.40638124999999997 0.09202395833333334-0.632571875 0.09202395833333334-0.26071458333333336 0-0.5194885416666667-0.036440625000000004-0.7763458333333334-0.10927395833333334-0.24463854166666665-0.06938333333333334-0.4632104166666667-0.163084375-0.6556677083333333-0.28115104166666666l-0.028678125000000002-0.017896875 0.31052395833333335-0.6038218750000001c0.04985729166666667 0.049833333333333334 0.13227395833333336 0.105440625 0.24729791666666667 0.16677395833333336 0.11883333333333333 0.06133333333333334 0.2568572916666667 0.11310729166666668 0.4140479166666667 0.15527395833333335 0.157190625 0.042166666666666665 0.3239645833333334 0.06325 0.500321875 0.06325 0.35271458333333333 0 0.529071875-0.09391666666666668 0.529071875-0.28177395833333335 0-0.12652395833333335-0.082440625-0.21663125-0.24729791666666667-0.2702979166666667l-0.039627083333333334-0.013919791666666667-0.041615625-0.014135416666666666-0.043628125000000004-0.014351041666666668-0.045592708333333336-0.014566666666666667-0.04760520833333333-0.01480625-0.04956979166666667-0.014997916666666668c-0.008433333333333334-0.0025395833333333334-0.016938541666666668-0.005055208333333333-0.025539583333333334-0.007594791666666666l-0.052540625-0.015357291666666668-0.05455312500000001-0.015572916666666667-0.05651770833333333-0.015788541666666666-0.05853020833333333-0.016004166666666667-0.091496875-0.0244375-0.03150520833333333-0.008241666666666666c-0.32971458333333337-0.08433333333333333-0.575071875-0.191690625-0.7360958333333334-0.3220479166666667-0.157190625-0.134190625-0.23577395833333334-0.32588125-0.23577395833333334-0.575071875 0-0.22235729166666668 0.05558333333333334-0.408321875 0.16674999999999998-0.557821875 0.11502395833333334-0.14952395833333335 0.26838125-0.26263125000000004 0.460071875-0.33929791666666664 0.19552395833333336-0.076690625 0.40829791666666665-0.11502395833333334 0.6383458333333334-0.11502395833333334Zm-5.333125000000001 0.005750000000000001c0.24329687500000002 0 0.4654385416666667 0.04432291666666667 0.666209375 0.13292083333333332l0.02400625 0.010853125c0.20702395833333334 0.09200000000000001 0.38338125 0.21660729166666667 0.529071875 0.3737979166666667 0.14952395833333335 0.15335729166666667 0.26440416666666666 0.3277979166666667 0.34492812500000003 0.523321875 0.0805 0.19552395833333336 0.12086979166666666 0.39488125 0.12086979166666666 0.598071875 0 0.21085729166666667-0.042166666666666665 0.414071875-0.1265 0.6095958333333333-0.08435729166666668 0.191690625-0.203334375 0.36421458333333334-0.35666770833333333 0.517571875-0.14952395833333335 0.14952395833333335-0.327678125 0.2683572916666667-0.5347020833333334 0.3565479166666667-0.20704791666666666 0.08816666666666667-0.4332385416666667 0.13225-0.6785958333333333 0.13225-0.2530479166666667 0-0.4830718750000001-0.044083333333333335-0.6900958333333334-0.13225-0.20702395833333334-0.09202395833333334-0.38541770833333333-0.21469062500000002-0.5349416666666668-0.3680479166666667-0.14952395833333335-0.157190625-0.26452395833333336-0.3335479166666667-0.3450479166666667-0.529071875-0.08038020833333334-0.19552395833333336-0.12075000000000001-0.39679791666666664-0.12075000000000001-0.6038458333333333 0-0.21085729166666667 0.042166666666666665-0.4140479166666667 0.1265-0.609571875 0.08052395833333334-0.1866354166666667 0.19257708333333334-0.35233125 0.3359677083333334-0.4970395833333334l0.020700000000000003-0.020532291666666667c0.15335729166666667-0.15335729166666667 0.333428125-0.27413125000000005 0.5404520833333333-0.36229791666666666 0.20702395833333334-0.088190625 0.4332385416666667-0.13227395833333336 0.6785958333333333-0.13227395833333336Zm-13.875279479166666 0.017249999999999998 1.3974440625000002 3.21468125h-0.7360958333333334l-0.3220479166666667-0.7533458333333334H1.3034746875l-0.322043125 0.7533458333333334H0.23958333333333334l1.403186875-3.21468125h0.5693242708333334Zm4.116235729166667 0 0.8856197916666667 1.1386677083333334 0.8856197916666667-1.1386677083333334h0.7533458333333334l-1.2709177083333334 1.6274895833333334 1.2306677083333335 1.5871916666666666h-0.7533458333333334l-0.8453697916666667-1.0926437500000001-0.8395958333333333 1.0926437500000001h-0.7648697916666667l1.2364177083333334-1.5871916666666666-1.2766677083333335-1.6274895833333334h0.7590958333333334Zm5.616144791666667-0.014710416666666669v2.151122916666667h0.5581333333333334l-0.84596875 0.6942645833333334v-2.645l0.2878354166666667-0.20038750000000002Zm4.13151875 0.61855625c-0.21085729166666667 0-0.39116770833333336 0.049833333333333334-0.5406916666666667 0.1495-0.145690625 0.099690625-0.25688125 0.22621458333333336-0.3335479166666667 0.379571875-0.07666666666666667 0.15335729166666667-0.11502395833333334 0.3124645833333334-0.11502395833333334 0.47729791666666666 0 0.17252395833333334 0.04039375 0.33738124999999997 0.12089375000000002 0.494571875 0.08040416666666667 0.15335729166666667 0.1934875 0.2779645833333333 0.339178125 0.3737979166666667 0.14952395833333335 0.09585729166666668 0.3277979166666667 0.14377395833333334 0.534821875 0.14377395833333334 0.21085729166666667 0 0.38913125000000004-0.049833333333333334 0.534821875-0.14952395833333335 0.1458104166666667-0.10350000000000001 0.2568572916666667-0.231940625 0.3335479166666667-0.3852979166666667 0.07666666666666667-0.157190625 0.11511979166666667-0.31821458333333336 0.11511979166666667-0.4830718750000001 0-0.17252395833333334-0.04025-0.33546458333333334-0.12075000000000001-0.48882187499999996-0.08052395833333334-0.15333333333333335-0.19552395833333336-0.2760239583333333-0.3451677083333334-0.3680479166666667-0.145690625-0.09583333333333334-0.3200114583333334-0.14375-0.5232020833333334-0.14375ZM1.930308541666667 10.727080208333334l-0.47156229166666663 1.01214375h0.9258721875000001l-0.45430989583333337-1.01214375Z" />
        </symbol>
    </svg>
    <svg xmlns="http://www.w3.org/2000/svg" style="display: none;">
        <symbol id="Styled Components" viewBox="0 0 32 32">
            <path d="m18.05 29.6c.042-.095.148-.161.225-.241 1.175-1.232 2.36-2.453 3.519-3.7a3.2 3.2 0 0 0 1.014-2.659 5.925 5.925 0 0 0 -.143-.624c-.316.3-.61.573-.906.848-.46.428-.918.858-1.382 1.281a1.931 1.931 0 0 1 -2.148.419 1.973 1.973 0 0 1 -1.29-1.75 1.04 1.04 0 0 0 -.043-.146c-.353.3-.691.576-1.026.86l-6.963 5.9c-.048.041-.1.092-.145.132h9.283l-.014-.009c-.05-.035-.024-.219.019-.311z" fill="#ffcebf"/>
            <path d="m8.337 29.6a1.239 1.239 0 0 1 .295-.276l9.636-8.175q.986-.837 1.963-1.683a.523.523 0 0 0 .182-.224 5.364 5.364 0 0 0 .065-2.069c-.1.07-.154.1-.2.149-.789.706-1.574 1.418-2.367 2.12a1.762 1.762 0 0 1 -2.048.329 1.889 1.889 0 0 1 -1.08-1.807c0-.085 0-.169 0-.324-.145.106-.251.177-.35.257q-5.785 4.632-11.568 9.257c-.174.139-.382.449-.61.148s.119-.425.294-.565q6.165-4.947 12.336-9.885c.67-.537.714-.762.278-1.615l-.26.244c-.713.663-1.434 1.317-2.136 1.991a2.121 2.121 0 0 1 -3.585-1.337c-.133.1-.248.173-.357.258l-6.1 4.728a1.485 1.485 0 0 1 -.356.258.446.446 0 0 1 -.3-.015v8.561h6.256a.365.365 0 0 1 .012-.325z" fill="#ffcebf"/>
            <path d="m25.237 2.423c-.17.557-.335 1.115-.484 1.678a1.688 1.688 0 0 0 .9 2.09 7.122 7.122 0 0 0 3.818.8v-4.473a.73.73 0 0 1 .016-.294.666.666 0 0 1 .105-.149h-4.359c.067.078.044.215.004.348z" fill="#ff6196"/>
            <g fill="#ff87af">
                <path d="m16.482 12.032a2.422 2.422 0 0 1 -.5 1.376 22.671 22.671 0 0 1 -3.726 3.792 1.442 1.442 0 0 1 -1.684.2 1.393 1.393 0 0 1 -.843-1.368 1.624 1.624 0 0 1 .417-.947 35.848 35.848 0 0 1 5.019-3.993.71.71 0 0 1 .829-.034 1.041 1.041 0 0 1 .488.974z"/>
                <path d="m15.284 18.093a1.437 1.437 0 0 1 .448-1.2 38.336 38.336 0 0 1 4.87-3.813c.052-.033.1-.066.157-.1a.837.837 0 0 1 1.025.035.861.861 0 0 1 .242.979 4.39 4.39 0 0 1 -1.168 1.908c-1.105 1.1-2.252 2.164-3.4 3.22a1.124 1.124 0 0 1 -1.364.192 1.512 1.512 0 0 1 -.81-1.221z"/>
                <path d="m22.5 18.754c-.28.3-.568.586-.837.893a1.89 1.89 0 0 0 -.2.38c.148.044.321.16.441.119.611-.205 1.207-.451 1.878-.71-.146.336-.256.646-.411.93a12.189 12.189 0 0 1 -2.371 2.872q-.532.513-1.105.981a1.484 1.484 0 0 1 -2.415-.92 1.1 1.1 0 0 1 .238-.813 22.187 22.187 0 0 1 4.623-3.823.193.193 0 0 1 .065-.013z"/>
            </g>
            <path d="m24.794 14.771 1.711-7.6 1.2.281-.619 1.881c-.578 1.75-1.163 3.5-1.727 5.252-.11.324-.254.384-.565.186z" fill="#ff6196"/>
        </symbol>
    </svg>

    <svg xmlns="http://www.w3.org/2000/svg" style="display: none;">
        <symbol id="GitHub" viewBox="0 0 48 48">
            <path fill="#2100c4" d="M24,4C12.954,4,4,12.954,4,24c0,8.887,5.801,16.411,13.82,19.016h12.36 C38.199,40.411,44,32.887,44,24C44,12.954,35.046,4,24,4z"/>
            <path fill="#ddbaff" d="M37,23.5c0-2.897-0.875-4.966-2.355-6.424C35.591,15.394,34.339,12,34.339,12 c-2.5,0.5-4.367,1.5-5.609,2.376C27.262,14.115,25.671,14,24,14c-1.71,0-3.339,0.118-4.834,0.393 c-1.242-0.879-3.115-1.889-5.632-2.393c0,0-1.284,3.492-0.255,5.146C11.843,18.6,11,20.651,11,23.5 c0,6.122,3.879,8.578,9.209,9.274C19.466,33.647,19,34.764,19,36l0,0.305c-0.163,0.045-0.332,0.084-0.514,0.108 c-1.107,0.143-2.271,0-2.833-0.333c-0.562-0.333-1.229-1.083-1.729-1.813c-0.422-0.616-1.263-2.032-3.416-1.979 c-0.376-0.01-0.548,0.343-0.5,0.563c0.043,0.194,0.213,0.5,0.896,0.75c0.685,0.251,1.063,0.854,1.438,1.458 c0.418,0.674,0.417,2.468,2.562,3.416c1.53,0.677,2.988,0.594,4.097,0.327l0.001,3.199c0,0.639-0.585,1.125-1.191,1.013 C19.755,43.668,21.833,44,24,44c2.166,0,4.243-0.332,6.19-0.984C29.584,43.127,29,42.641,29,42.002L29,36 c0-1.236-0.466-2.353-1.209-3.226C33.121,32.078,37,29.622,37,23.5z"/>
            <path fill="#ddbaff" d="M15,18l3.838-1.279c1.01-0.337,1.231-1.684,0.365-2.302l-0.037-0.026 c-2.399,0.44-4.445,1.291-5.888,2.753C13.596,17.658,14.129,18,15,18z"/>
            <path fill="#ddbaff" d="M28.693,14.402c-0.878,0.623-0.655,1.987,0.366,2.327L32.872,18c0.913,0,1.461-0.37,1.773-0.924 c-1.46-1.438-3.513-2.274-5.915-2.701C28.717,14.384,28.705,14.393,28.693,14.402z"/>
            <path fill="#ddbaff" d="M24,31c-1.525,0-2.874,0.697-3.791,1.774C21.409,32.931,22.681,33,24,33s2.591-0.069,3.791-0.226 C26.874,31.697,25.525,31,24,31z"/>
        </symbol>
    </svg>

</svg>





