<svg xmlns="http://www.w3.org/2000/svg" style="display: none;">

        <g id="1" xmlns="http://www.w3.org/2000/svg" ><linearGradient id="SVGID_1_" x1="38.743" x2="9.257" y1="9.257" y2="38.743" gradientUnits="userSpaceOnUse"><stop offset="0" stop-color="#60fea4"/><stop offset=".033" stop-color="#6afeaa"/><stop offset=".197" stop-color="#97fec4"/><stop offset=".362" stop-color="#bdffd9"/><stop offset=".525" stop-color="#daffea"/><stop offset=".687" stop-color="#eefff5"/><stop offset=".846" stop-color="#fbfffd"/><stop offset="1" stop-color="#fff"/></linearGradient><path fill="url(#SVGID_1_)" d="M34.5,40.5h-21c-3.314,0-6-2.686-6-6v-21c0-3.314,2.686-6,6-6h21c3.314,0,6,2.686,6,6v21	C40.5,37.814,37.814,40.5,34.5,40.5z"/><path fill="#10e36c" d="M31.328,34.068c0.648,0,2.876-1.164,2.752-4.041c-0.022-0.507-0.307-0.972-0.745-1.252	c-0.499-0.32-1.273-0.816-2.282-1.461c-0.921-0.588-2.11-0.63-3.071-0.104l-0.874,0.374c-0.455,0.32-1.039,0.383-1.552,0.169	c-0.799-0.334-2.026-0.981-3.177-2.132c-1.151-1.151-1.798-2.378-2.132-3.177c-0.215-0.513-0.151-1.097,0.169-1.552l0.374-0.874	c0.526-0.96,0.485-2.15-0.104-3.071c-0.646-1.01-1.142-1.783-1.461-2.282c-0.281-0.438-0.746-0.723-1.252-0.745	c-2.876-0.124-4.041,2.104-4.041,2.752c0,0.449-0.614,5.842,5.47,11.926S30.88,34.068,31.328,34.068z"/><path fill="none" stroke="#10e36c" stroke-linecap="round" stroke-linejoin="round" stroke-width="3" d="M32.149,7.5H34.5c3.314,0,6,2.686,6,6v21c0,3.314-2.686,6-6,6h-8.734"/><path fill="none" stroke="#10e36c" stroke-linecap="round" stroke-linejoin="round" stroke-width="3" d="M19.851,40.5H13.5c-3.314,0-6-2.686-6-6v-21c0-3.314,2.686-6,6-6h12.819"/></g>

    <g id="What" xmlns="http://www.w3.org/2000/svg"  fill-rule="evenodd"
       clip-rule="evenodd">
        <path fill="#fff"
              d="M4.868,43.303l2.694-9.835C5.9,30.59,5.026,27.324,5.027,23.979C5.032,13.514,13.548,5,24.014,5c5.079,0.002,9.845,1.979,13.43,5.566c3.584,3.588,5.558,8.356,5.556,13.428c-0.004,10.465-8.522,18.98-18.986,18.98c-0.001,0,0,0,0,0h-0.008c-3.177-0.001-6.3-0.798-9.073-2.311L4.868,43.303z"/>
        <path fill="#fff"
              d="M4.868,43.803c-0.132,0-0.26-0.052-0.355-0.148c-0.125-0.127-0.174-0.312-0.127-0.483l2.639-9.636c-1.636-2.906-2.499-6.206-2.497-9.556C4.532,13.238,13.273,4.5,24.014,4.5c5.21,0.002,10.105,2.031,13.784,5.713c3.679,3.683,5.704,8.577,5.702,13.781c-0.004,10.741-8.746,19.48-19.486,19.48c-3.189-0.001-6.344-0.788-9.144-2.277l-9.875,2.589C4.953,43.798,4.911,43.803,4.868,43.803z"/>
        <path fill="#cfd8dc"
              d="M24.014,5c5.079,0.002,9.845,1.979,13.43,5.566c3.584,3.588,5.558,8.356,5.556,13.428c-0.004,10.465-8.522,18.98-18.986,18.98h-0.008c-3.177-0.001-6.3-0.798-9.073-2.311L4.868,43.303l2.694-9.835C5.9,30.59,5.026,27.324,5.027,23.979C5.032,13.514,13.548,5,24.014,5 M24.014,42.974C24.014,42.974,24.014,42.974,24.014,42.974C24.014,42.974,24.014,42.974,24.014,42.974 M24.014,42.974C24.014,42.974,24.014,42.974,24.014,42.974C24.014,42.974,24.014,42.974,24.014,42.974 M24.014,4C24.014,4,24.014,4,24.014,4C12.998,4,4.032,12.962,4.027,23.979c-0.001,3.367,0.849,6.685,2.461,9.622l-2.585,9.439c-0.094,0.345,0.002,0.713,0.254,0.967c0.19,0.192,0.447,0.297,0.711,0.297c0.085,0,0.17-0.011,0.254-0.033l9.687-2.54c2.828,1.468,5.998,2.243,9.197,2.244c11.024,0,19.99-8.963,19.995-19.98c0.002-5.339-2.075-10.359-5.848-14.135C34.378,6.083,29.357,4.002,24.014,4L24.014,4z"/>
        <path fill="#40c351"
              d="M35.176,12.832c-2.98-2.982-6.941-4.625-11.157-4.626c-8.704,0-15.783,7.076-15.787,15.774c-0.001,2.981,0.833,5.883,2.413,8.396l0.376,0.597l-1.595,5.821l5.973-1.566l0.577,0.342c2.422,1.438,5.2,2.198,8.032,2.199h0.006c8.698,0,15.777-7.077,15.78-15.776C39.795,19.778,38.156,15.814,35.176,12.832z"/>
        <path fill="#fff" fill-rule="evenodd"
              d="M19.268,16.045c-0.355-0.79-0.729-0.806-1.068-0.82c-0.277-0.012-0.593-0.011-0.909-0.011c-0.316,0-0.83,0.119-1.265,0.594c-0.435,0.475-1.661,1.622-1.661,3.956c0,2.334,1.7,4.59,1.937,4.906c0.237,0.316,3.282,5.259,8.104,7.161c4.007,1.58,4.823,1.266,5.693,1.187c0.87-0.079,2.807-1.147,3.202-2.255c0.395-1.108,0.395-2.057,0.277-2.255c-0.119-0.198-0.435-0.316-0.909-0.554s-2.807-1.385-3.242-1.543c-0.435-0.158-0.751-0.237-1.068,0.238c-0.316,0.474-1.225,1.543-1.502,1.859c-0.277,0.317-0.554,0.357-1.028,0.119c-0.474-0.238-2.002-0.738-3.815-2.354c-1.41-1.257-2.362-2.81-2.639-3.285c-0.277-0.474-0.03-0.731,0.208-0.968c0.213-0.213,0.474-0.554,0.712-0.831c0.237-0.277,0.316-0.475,0.474-0.791c0.158-0.317,0.079-0.594-0.04-0.831C20.612,19.329,19.69,16.983,19.268,16.045z"
              clip-rule="evenodd"/>
    </g>

    <g id="Telegram" xmlns="http://www.w3.org/2000/svg">
        <path fill="#29b6f6" d="M24 4A20 20 0 1 0 24 44A20 20 0 1 0 24 4Z"/>
        <path fill="#fff"
              d="M33.95,15l-3.746,19.126c0,0-0.161,0.874-1.245,0.874c-0.576,0-0.873-0.274-0.873-0.274l-8.114-6.733 l-3.97-2.001l-5.095-1.355c0,0-0.907-0.262-0.907-1.012c0-0.625,0.933-0.923,0.933-0.923l21.316-8.468 c-0.001-0.001,0.651-0.235,1.126-0.234C33.667,14,34,14.125,34,14.5C34,14.75,33.95,15,33.95,15z"/>
        <path fill="#b0bec5"
              d="M23,30.505l-3.426,3.374c0,0-0.149,0.115-0.348,0.12c-0.069,0.002-0.143-0.009-0.219-0.043 l0.964-5.965L23,30.505z"/>
        <path fill="#cfd8dc"
              d="M29.897,18.196c-0.169-0.22-0.481-0.26-0.701-0.093L16,26c0,0,2.106,5.892,2.427,6.912 c0.322,1.021,0.58,1.045,0.58,1.045l0.964-5.965l9.832-9.096C30.023,18.729,30.064,18.416,29.897,18.196z"/>
    </g>


    <g id="MailG" xmlns="http://www.w3.org/2000/svg">
        <path fill="#5c7aaf"
              d="M12.47,40.69c-1.07-0.08-2.5-0.09-3.57-0.04c-1.16,0.06-2.34,0.19-3.49-0.03	c-1.15-0.21-2.29-0.83-2.79-1.9c-0.3-0.63-0.34-1.35-0.37-2.06c-0.04-0.73-0.08-1.47-0.05-2.21c0.04-1,0.19-2,0.26-3	c0.05-0.8,0.05-1.6,0.04-2.41c0.18-4.49-0.4-8.96-0.49-13.43c2.26,2.16,5.29,4.07,7.88,5.79c0.72,0.48,1.4,1,2.07,1.54	c0.09,1.13,0.2,2.23,0.29,3.39c0.11,1.37,0.11,2.75,0.12,4.13C12.38,33.71,12.47,40.69,12.47,40.69z"/>
        <path fill="#b43b2c"
              d="M11.96,22.94c-0.67-0.54-1.35-1.06-2.07-1.54c-2.59-1.72-5.62-3.63-7.88-5.79c-0.02-1-0.01-2,0.03-3	c-0.22-4.38,5.08-6.03,8.03-3.23c0.57,0.47,1.1,0.91,1.59,1.32c0.05,1.28-0.03,2.96,0.06,4.15c0.17,2.18,0.03,4.46,0.14,6.65	C11.89,21.99,11.92,22.47,11.96,22.94z"/>
        <path fill="#cc2729"
              d="M35.5,21.63c-0.04,0.77-0.07,1.53-0.09,2.28C31.47,26.45,27.99,29.5,24,32	c-3.16-2.36-6.45-4.45-9.39-6.86c-0.89-0.73-1.76-1.48-2.65-2.2c-0.04-0.47-0.07-0.95-0.1-1.44c-0.11-2.19,0.03-4.47-0.14-6.65	c-0.09-1.19-0.01-2.87-0.06-4.15c2.39,2,4.09,3.44,6.32,5.27c1.88,1.34,4.04,2.41,6.02,3.5c4.32-2.27,8.34-5.12,12.17-8.11	C36.52,14.55,35.68,18.49,35.5,21.63z"/>
        <path fill="#febf10"
              d="M46.05,15.31c-3.28,3.43-6.58,6.03-9.99,8.17c-0.22,0.14-0.43,0.28-0.65,0.43	c0.02-0.75,0.05-1.51,0.09-2.28c0.18-3.14,1.02-7.08,0.67-10.27c0.39-0.3,0.77-0.6,1.15-0.9c1.05-0.83,2.11-1.69,3.38-2.15	c1.26-0.46,2.8-0.46,3.86,0.35c0.71,0.54,1.12,1.37,1.3,2.22C45.99,12.29,46.04,13.77,46.05,15.31z"/>
        <path fill="#6eb37d"
              d="M45.87,39.21c-0.18,0.57-0.63,1.04-1.16,1.32s-1.12,0.4-1.72,0.45c-1.49,0.11-2.97-0.23-4.46-0.28	c-0.89-0.03-2.13,0.03-3.03,0.1c0,0-0.01-2.91,0-4.03c0.03-4.41-0.21-8.54-0.09-12.86c0.22-0.15,0.43-0.29,0.65-0.43	c3.41-2.14,6.71-4.74,9.99-8.17c0.02,4.01-0.26,8.35-0.27,12.45C45.78,31.35,46.52,35.66,45.87,39.21z"/>
        <path d="M35.62,11.658c0.313,2.13,0.032,4.295-0.24,6.414c-0.277,2.157-0.448,4.298-0.487,6.473	c-0.077,4.223,0.12,8.447,0.106,12.67c-0.004,1.196-0.001,2.392,0.002,3.588c0.001,0.255,0.229,0.52,0.5,0.5	c1.047-0.078,2.103-0.146,3.152-0.098c1.215,0.056,2.417,0.288,3.634,0.295c1.046,0.006,2.167-0.133,3.033-0.767	c0.819-0.6,1.054-1.372,1.173-2.339c0.277-2.25,0.107-4.532-0.04-6.785c-0.15-2.294-0.183-4.569-0.127-6.867	c0.059-2.379,0.161-4.756,0.203-7.136c0.02-1.168,0.026-2.337,0-3.506c-0.024-1.083-0.013-2.213-0.179-3.285	c-0.299-1.932-1.915-3.269-3.837-3.312c-2.098-0.047-3.812,1.232-5.379,2.469c-4.235,3.344-8.606,6.536-13.384,9.069	c0.168,0,0.336,0,0.505,0c-2.183-1.198-4.519-2.275-6.452-3.867c-1.588-1.308-3.165-2.629-4.744-3.948	c-0.916-0.765-1.84-1.521-2.745-2.297C9.712,8.413,9.05,8.008,8.292,7.764C6.918,7.32,5.374,7.443,4.089,8.1	c-1.315,0.672-2.251,1.939-2.484,3.399c-0.172,1.078-0.11,2.23-0.105,3.319c0.007,1.349,0.066,2.696,0.142,4.043	c0.154,2.736,0.38,5.471,0.393,8.213c0.006,1.336,0.004,2.684-0.059,4.018c-0.061,1.286-0.282,2.559-0.286,3.848	c-0.004,1.264-0.066,2.76,0.456,3.939c0.448,1.011,1.39,1.685,2.413,2.038c1.32,0.456,2.745,0.317,4.112,0.244	c1.263-0.068,2.532-0.06,3.794,0.024c0.268,0.018,0.503-0.243,0.5-0.5c-0.03-2.524-0.057-5.048-0.078-7.572	c-0.016-1.937,0.016-3.879-0.078-5.814c-0.126-2.609-0.48-5.194-0.495-7.811c-0.008-1.429,0.019-2.86-0.072-4.286	c-0.091-1.424-0.008-2.85-0.108-4.272c-0.045-0.638-1.045-0.643-1,0c0.086,1.225-0.006,2.452,0.066,3.677	c0.077,1.31,0.111,2.613,0.112,3.925c0.001,2.615,0.237,5.19,0.436,7.795c0.285,3.737,0.142,7.537,0.183,11.284	c0.011,1.025,0.022,2.05,0.034,3.074c0.167-0.167,0.333-0.333,0.5-0.5c-0.998-0.066-2.001-0.082-3.001-0.056	c-1.081,0.028-2.163,0.164-3.245,0.093c-1.014-0.067-2.1-0.38-2.791-1.171c-0.737-0.842-0.676-2.075-0.717-3.126	c-0.047-1.196,0.046-2.362,0.164-3.55c0.119-1.195,0.106-2.382,0.136-3.58c0.061-2.417-0.054-4.827-0.204-7.24	c-0.15-2.407-0.318-4.815-0.307-7.227c0.007-1.591-0.158-3.336,1.028-4.578C4.413,8.822,5.72,8.417,6.981,8.515	c1.7,0.132,2.836,1.305,4.079,2.341c2.984,2.487,5.861,5.233,9.246,7.166c0.977,0.558,1.973,1.082,2.961,1.619	c0.42,0.228,0.637,0.411,1.089,0.21c0.52-0.231,1.018-0.55,1.513-0.832c2.002-1.139,3.938-2.393,5.824-3.716	c1.823-1.279,3.6-2.624,5.353-3.998c1.608-1.261,3.369-2.911,5.564-2.801c1.073,0.054,1.972,0.599,2.452,1.57	c0.454,0.919,0.398,2.037,0.437,3.039c0.087,2.232,0.042,4.467-0.023,6.699c-0.067,2.304-0.161,4.607-0.186,6.912	c-0.024,2.154,0.139,4.291,0.261,6.44c0.062,1.104,0.106,2.211,0.078,3.317c-0.024,0.941,0.087,2.398-0.562,3.146	c-0.75,0.865-2.075,0.906-3.131,0.864c-1.168-0.046-2.323-0.26-3.492-0.294c-0.981-0.029-1.965,0.033-2.943,0.106	c0.167,0.167,0.333,0.333,0.5,0.5c-0.008-2.999,0.012-5.997-0.047-8.996c-0.087-4.433-0.199-8.864,0.366-13.272	c0.305-2.377,0.616-4.753,0.264-7.143C36.491,10.758,35.527,11.027,35.62,11.658L35.62,11.658z"/>
        <path d="M1.834,16.064c3.218,3.139,7.297,5.148,10.731,8.019c1.74,1.455,3.501,2.862,5.345,4.184	c1.942,1.392,3.918,2.736,5.834,4.165c0.136,0.101,0.367,0.087,0.505,0c4.105-2.589,7.772-5.799,11.868-8.4	c3.751-2.382,7.201-5.027,10.253-8.274c0.441-0.469-0.265-1.177-0.707-0.707c-1.56,1.659-3.219,3.221-5.007,4.632	c-1.67,1.318-3.451,2.464-5.24,3.611c-4.019,2.576-7.632,5.728-11.672,8.275c0.168,0,0.336,0,0.505,0	c-1.853-1.382-3.761-2.684-5.642-4.028c-1.905-1.361-3.715-2.817-5.513-4.314c-3.38-2.813-7.392-4.786-10.553-7.87	C2.08,14.907,1.372,15.614,1.834,16.064L1.834,16.064z"/>
    </g>


    <g id="Git" xmlns="http://www.w3.org/2000/svg">
        <path fill="#F4511E"
              d="M42.2,22.1L25.9,5.8C25.4,5.3,24.7,5,24,5c0,0,0,0,0,0c-0.7,0-1.4,0.3-1.9,0.8l-3.5,3.5l4.1,4.1c0.4-0.2,0.8-0.3,1.3-0.3c1.7,0,3,1.3,3,3c0,0.5-0.1,0.9-0.3,1.3l4,4c0.4-0.2,0.8-0.3,1.3-0.3c1.7,0,3,1.3,3,3s-1.3,3-3,3c-1.7,0-3-1.3-3-3c0-0.5,0.1-0.9,0.3-1.3l-4-4c-0.1,0-0.2,0.1-0.3,0.1v10.4c1.2,0.4,2,1.5,2,2.8c0,1.7-1.3,3-3,3s-3-1.3-3-3c0-1.3,0.8-2.4,2-2.8V18.8c-1.2-0.4-2-1.5-2-2.8c0-0.5,0.1-0.9,0.3-1.3l-4.1-4.1L5.8,22.1C5.3,22.6,5,23.3,5,24c0,0.7,0.3,1.4,0.8,1.9l16.3,16.3c0,0,0,0,0,0c0.5,0.5,1.2,0.8,1.9,0.8s1.4-0.3,1.9-0.8l16.3-16.3c0.5-0.5,0.8-1.2,0.8-1.9C43,23.3,42.7,22.6,42.2,22.1z"></path>
    </g>
</svg>
